<?xml version="1.0" encoding="UTF-8" standalone="no"?>
<!DOCTYPE svg PUBLIC "-//W3C//DTD SVG 1.0//EN" "http://www.w3.org/TR/2001/REC-SVG-20010904/DTD/svg10.dtd">
<svg viewBox="0 0 437.5 437.5" xmlns="http://www.w3.org/2000/svg" xmlns:xlink="http://www.w3.org/1999/xlink">
<defs>
<linearGradient id="linearGradient596">
<stop offset="0" stop-color="#ffff4f"/>
<stop offset="1" stop-color="#fff"/>
</linearGradient>
<linearGradient id="linearGradient73" x1="8.6628138e-10" x2="1">
<stop offset="0" stop-color="#e3f2bd"/>
<stop offset="1" stop-color="#ddef00"/>
</linearGradient>
<linearGradient id="linearGradient1242" x1="-2.89310993e-8" x2="1">
<stop offset="0" stop-color="#ff0"/>
<stop offset="1" stop-color="#00af00"/>
</linearGradient>
<linearGradient id="linearGradient1243" x1="7.60878915e-10" x2="1" xlink:href="#linearGradient596"/>
<linearGradient id="linearGradient1246" x1="-4.13191898e-8" x2="1" xlink:href="#linearGradient596"/>
</defs>
<path d="m437.5713,177.345c-.4281-12.7417-27.9804-9.9143-32.0063-6.1069-2.535,10.5332-144.7904,204.4982-158.6985,227.4809 48.6978-30.6258 167.4177-134.9652 189.3712-152.6717 3.2149-19.2672 1.3336-58.0153 1.3336-68.7023z" fill-opacity=".3214" fill-rule="evenodd"/>
<path d="m236.1977,412.4595c3.9906,0 170.8176-167.8985 170.9967-184.2857 1.8737-22.7401 10.0626-95.0562-3.2866-107.5024-14.2209-13.2588-210.0364-87.24947-221.8631-87.73203-13.1277-1.73391-169.02166,130.75383-176.0075,144.59093-3.41097,7.2833-5.67969,103.0317 2.1148,110.0002 13.58734,11.0683 220.218,131.2545 228.0457,124.929z" fill="#00673d" fill-rule="evenodd"/>
<path d="m234.8641,386.5053c13.918-1.5268 159.9842-236.0048 156.0314-247.3283 0-9.6691-379.18003,35.2708-373.40829,45.8015-27.57381,38.0549 195.48159,199.5569 217.37689,201.5268z" fill="#fff" fill-rule="evenodd"/>
<path d="m237.5312,386.5053c-.657-35.9249-1.2393-79.4324 4.001-90.0765 8.1168-16.4872 138.8487-143.4763 150.6967-157.2517 2.5692,17.6368-1.8001,59.2395-1.3335,77.8627-13.0362,16.0799-137.2574,156.7856-153.3642,169.4655z" fill="url(#linearGradient1246)" fill-rule="evenodd"/>
<path d="m233.5305,381.9251c-1.0889-21.6784-2.5507-74.8246-8.0017-82.4427-5.5026-12.091-194.55757-99.6985-210.7088-106.8702 .09166,18.8645 1.33361,50.1783 1.33361,77.8625 20.20042,9.7527 197.33839,130.3067 217.37689,111.4504z" fill="url(#linearGradient73)" fill-rule="evenodd"/>
<path d="m390.8954,137.6504c0-8.3204-195.0142-88.36478-205.3745-88.54956-11.9011-.21221-170.3109,121.54706-165.36651,135.87766 5.2575,10.8339 198.65871,99.9686 212.04251,102.2901 10.3684,3.2693 156.1166-140.3569 158.6985-149.6182z" fill="url(#linearGradient1243)" fill-rule="evenodd"/>
<path d="m59.49565,250.6273c.0327-6.3029-.2581-13.1576-.66681-20.6105-3.23272-1.4981-26.27731-11.744-31.33962-12.2139 0,5.0891-.6668,9.4148-.6668,14.5038 2.6672,2.1123 27.92664,14.6892 32.67323,18.3206z" fill="url(#linearGradient1242)" fill-rule="evenodd" stroke="#007100" stroke-width="6.33949"/>
<g fill="#c1c1bf" font-size="12" transform="matrix(.53591,0,0,.52976,266.3505,21.13214)">
<path d="m115.64,341.416c.936-5.04 2.16-9.792 3.672-14.256l2.376,15.624-6.048-1.368z"/>
</g>
</svg>
