<?xml version="1.0" encoding="UTF-8" standalone="no"?>
<!DOCTYPE svg PUBLIC "-//W3C//DTD SVG 1.0//EN" "http://www.w3.org/TR/2001/REC-SVG-20010904/DTD/svg10.dtd">
<svg viewBox="0 0 437.5 437.5" xmlns="http://www.w3.org/2000/svg" xmlns:xlink="http://www.w3.org/1999/xlink">
<defs>
<linearGradient id="linearGradient596">
<stop offset="0" stop-color="#eec24f"/>
<stop offset="1" stop-color="#fff"/>
</linearGradient>
<linearGradient id="linearGradient629">
<stop offset="0" stop-color="#ffff0d"/>
<stop offset="1" stop-color="#005707"/>
</linearGradient>
<linearGradient id="linearGradient619">
<stop offset="0" stop-color="#ff35d7"/>
<stop offset="1" stop-color="#f50"/>
</linearGradient>
<linearGradient id="linearGradient73" x1="8.6628138e-10" x2="1">
<stop offset="0" stop-color="#d9f25d"/>
<stop offset="1" stop-color="#ff9f02"/>
</linearGradient>
<linearGradient id="linearGradient1242" x1="-2.89310993e-8" x2="1">
<stop offset="0" stop-color="#ff0"/>
<stop offset="1" stop-color="#00af00"/>
</linearGradient>
<linearGradient id="linearGradient1243" x1="7.60878915e-10" x2="1" xlink:href="#linearGradient596"/>
<linearGradient id="linearGradient1246" x1="-4.13191898e-8" x2="1" xlink:href="#linearGradient596"/>
<linearGradient id="linearGradient1247" x1=".91908" x2="-.41041" xlink:href="#linearGradient629" y1=".13281" y2="1.00781"/>
<linearGradient id="linearGradient1251" x1=".95774" x2="-.33803" xlink:href="#linearGradient629" y1=".19531" y2="1.07813"/>
<linearGradient id="linearGradient620" x1=".96063" x2="-.13386" xlink:href="#linearGradient629" y1=".95313" y2="-.125"/>
<linearGradient id="linearGradient621" x1=".16763" x2="1.16763" xlink:href="#linearGradient619" y1=".69531" y2="3.12500484e-2"/>
<linearGradient id="linearGradient622" x1=".21127" x2="1.1831" xlink:href="#linearGradient619" y1=".875" y2="3.90625298e-2"/>
<linearGradient id="linearGradient623" x1="1.49290695e-8" x2="1" xlink:href="#linearGradient619"/>
</defs>
<path d="m268.3409,164.0561c-.2572-8.8588-16.8154-6.893-19.2348-4.2459-1.5235,7.3231-87.0144,142.178-95.3727,158.1567 29.2658-21.2926 100.6127-93.835 113.8061-106.1455 1.9321-13.3955.8014-40.3353.8014-47.7653z" fill-opacity=".3214" fill-rule="evenodd"/>
<path d="m147.3217,327.5201c2.3982,0 102.656-116.732 102.7637-128.1252 1.126-15.8101 6.0473-66.0882-1.9751-74.7415-8.5464-9.2181-126.2253-60.66039-133.3328-60.9959-7.8893-1.20549-101.57667,90.907-105.77494,100.5273-2.04989,5.0637-3.41331,71.6331 1.27093,76.478 8.16556,7.6953 132.34411,91.255 137.04821,86.8573z" fill="#00673d" fill-rule="evenodd"/>
<path d="m146.5203,309.4752c8.3642-1.0613 96.1455-164.0829 93.7699-171.9556 0-6.7224-227.87518,24.5221-224.40655,31.8436-16.57099,26.4577 117.47825,138.7425 130.63665,140.112z" fill="#fff" fill-rule="evenodd"/>
<path d="m148.1231,309.4752c-.3948-24.9768-.7448-55.2255 2.4045-62.6258 4.8779-11.4627 83.4438-99.7524 90.564-109.3297 1.544,12.262-1.0818,41.1864-.8015,54.1342-7.8342,11.1796-82.4872,109.0057-92.167,117.8213z" fill="url(#linearGradient1246)" fill-rule="evenodd"/>
<path d="m145.7188,306.2909c-.6544-15.072-1.5328-52.0221-4.8087-57.3185-3.3069-8.4064-116.92297-69.3158-126.62935-74.3018 .05508,13.1156.80145,34.8865.80145,54.1341 12.13982,6.7805 118.5941,90.5961 130.6366,77.4862z" fill="url(#linearGradient73)" fill-rule="evenodd"/>
<path d="m240.2901,136.4582c0-5.7848-117.1973-61.43594-123.4234-61.56439-7.1524-.1475-102.35158,84.50589-99.38016,94.46939 3.15959,7.5323 119.38756,69.5034 127.43076,71.1176 6.2311,2.2729 93.8212-97.5837 95.3728-104.0226z" fill="url(#linearGradient1243)" fill-rule="evenodd"/>
<path d="m41.1294,215.0057c.01966-4.3821-.15511-9.1479-.40073-14.3294-1.94276-1.0417-15.79184-8.1652-18.83412-8.4918 0,3.5382-.40073,6.5457-.40073,10.0838 1.6029,1.4686 16.78303,10.2128 19.63558,12.7374z" fill="url(#linearGradient1242)" fill-rule="evenodd" stroke="#007100" stroke-width="4.09781"/>
<path d="m268.3409,164.0561c-.2572-8.8588-16.8154-6.893-19.2348-4.2459-1.5235,7.3231-87.0144,142.178-95.3727,158.1567 29.2658-21.2926 100.6127-93.835 113.8061-106.1455 1.9321-13.3955.8014-40.3353.8014-47.7653z" fill-opacity=".3214" fill-rule="evenodd"/>
<path d="m147.3217,327.5201c2.3982,0 102.656-116.732 102.7637-128.1252 1.126-15.8101 6.0473-66.0882-1.9751-74.7415-8.5464-9.2181-126.2253-60.66039-133.3328-60.9959-7.8893-1.20549-101.57667,90.907-105.77494,100.5273-2.04989,5.0637-3.41331,71.6331 1.27093,76.478 8.16556,7.6953 132.34411,91.255 137.04821,86.8573z" fill="#ff8500" fill-rule="evenodd"/>
<path d="m146.5203,309.4752c8.3642-1.0613 96.1455-164.0829 93.7699-171.9556 0-6.7224-227.87518,24.5221-224.40655,31.8436-16.57099,26.4577 117.47825,138.7425 130.63665,140.112z" fill="#fff" fill-rule="evenodd"/>
<path d="m148.1231,309.4752c-.3948-24.9768-.7448-55.2255 2.4045-62.6258 4.8779-11.4627 83.4438-99.7524 90.564-109.3297 1.544,12.262-1.0818,41.1864-.8015,54.1342-7.8342,11.1796-82.4872,109.0057-92.167,117.8213z" fill="url(#linearGradient1246)" fill-rule="evenodd"/>
<path d="m145.7188,306.2909c-.6544-15.072-1.5328-52.0221-4.8087-57.3185-3.3069-8.4064-116.92297-69.3158-126.62935-74.3018 .05508,13.1156.80145,34.8865.80145,54.1341 12.13982,6.7805 118.5941,90.5961 130.6366,77.4862z" fill="url(#linearGradient73)" fill-rule="evenodd"/>
<path d="m240.2901,136.4582c0-5.7848-117.1973-61.43594-123.4234-61.56439-7.1524-.1475-102.35158,84.50589-99.38016,94.46939 3.15959,7.5323 119.38756,69.5034 127.43076,71.1176 6.2311,2.2729 93.8212-97.5837 95.3728-104.0226z" fill="url(#linearGradient1243)" fill-rule="evenodd"/>
<path d="m41.1294,215.0057c.01966-4.3821-.15511-9.1479-.40073-14.3294-1.94276-1.0417-15.79184-8.1652-18.83412-8.4918 0,3.5382-.40073,6.5457-.40073,10.0838 1.6029,1.4686 16.78303,10.2128 19.63558,12.7374z" fill="url(#linearGradient1242)" fill-rule="evenodd" stroke="#007100" stroke-width="4.09781"/>
<path d="m439.1961,260.3229c-.2572-8.8586-16.8153-6.8928-19.2348-4.2458-1.5234,7.3232-87.0144,142.1781-95.3728,158.1568 29.2659-21.2927 100.6129-93.835 113.8062-106.1455 1.932-13.3956.8014-40.3353.8014-47.7655z" fill-opacity=".3214" fill-rule="evenodd"/>
<path d="m318.177,423.787c2.3982,0 102.6559-116.732 102.7636-128.1252 1.126-15.81 6.0473-66.0881-1.9751-74.7414-8.5464-9.2182-126.2253-60.6605-133.3327-60.996-7.8895-1.2054-101.5767,90.9071-105.775,100.5274-2.0499,5.0637-3.4132,71.6331 1.271,76.478 8.1655,7.6952 132.344,91.255 137.0482,86.8572z" fill="#9e67a4" fill-rule="evenodd"/>
<path d="m317.3755,405.7422c8.3643-1.0614 96.1455-164.0829 93.77-171.9557 0-6.7225-227.8752,24.5222-224.4066,31.8437-16.571,26.4577 117.4782,138.7425 130.6366,140.112z" fill="#fff" fill-rule="evenodd"/>
<path d="m318.9783,405.7422c-.3948-24.9768-.7448-55.2256 2.4046-62.6259 4.8779-11.4628 83.4436-99.7524 90.5639-109.3297 1.544,12.262-1.0818,41.1865-.8014,54.1343-7.8343,11.1795-82.4873,109.0056-92.1671,117.8213z" fill="url(#linearGradient622)" fill-rule="evenodd"/>
<path d="m316.574,402.5578c-.6543-15.0719-1.5329-52.022-4.8087-57.3184-3.3069-8.4064-116.9229-69.3158-126.6293-74.3019 .055,13.1155.8015,34.8866.8015,54.1341 12.1399,6.7806 118.594,90.5961 130.6365,77.4862z" fill="url(#linearGradient623)" fill-rule="evenodd"/>
<path d="m411.1454,232.7252c0-5.7848-117.1973-61.436-123.4236-61.5644-7.1522-.1475-102.3515,84.5059-99.3801,94.4694 3.1596,7.5323 119.3876,69.5034 127.4309,71.1175 6.2311,2.2729 93.8212-97.5836 95.3728-104.0225z" fill="url(#linearGradient621)" fill-rule="evenodd"/>
<path d="m211.9847,311.2726c.0196-4.382-.1552-9.1478-.4008-14.3295-1.9427-1.0415-15.7918-8.165-18.8341-8.4916 0,3.5382-.4007,6.5456-.4007,10.0838 1.6028,1.4686 16.783,10.2126 19.6356,12.7373z" fill="url(#linearGradient1242)" fill-rule="evenodd" stroke="#007100" stroke-width="4.09781"/>
<path d="m354.791,201.2393c-.2572-8.8585-63.2382-29.4008-68.4711-22.5336-8.5572,14.357-98.2685,69.027-3.9339,104.7002 29.2659-21.2926 45.7495-46.0054 58.9428-58.3159 6.1523-9.1753 12.0554-12.2002 13.4622-23.8507z" fill-opacity=".3214" fill-rule="evenodd"/>
<path d="m245.9846,272.8821c2.3982,0 102.656-116.732 102.7636-128.1252 1.1261-15.8101 6.0474-66.08812-1.975-74.74146-8.5464-9.2182-126.2254-60.66044-133.3328-60.99593-7.8893-1.20551-101.5766,90.90703-105.7749,100.52729-2.0499,5.0638-3.4134,71.6331 1.2709,76.478 8.1655,7.6953 132.344,91.2551 137.0482,86.8573z" fill="#00673d" fill-rule="evenodd"/>
<path d="m245.1832,254.8373c8.3642-1.0614 96.1455-164.08298 93.7699-171.95568 0-6.72246-227.8752,24.52208-224.4065,31.84358-16.57109,26.4578 117.4782,138.7425 130.6366,140.1121z" fill="#fff" fill-rule="evenodd"/>
<path d="m246.786,254.8373c-.3949-24.9768-.7447-55.2255 2.4045-62.6259 4.8779-11.4628 83.4437-99.75237 90.564-109.32976 1.544,12.26202-1.0818,41.18646-.8015,54.13426-7.8342,11.1797-82.4873,109.0057-92.167,117.8214z" fill="url(#linearGradient1251)" fill-rule="evenodd"/>
<path d="m244.3817,251.6529c-.6544-15.072-1.5329-52.022-4.8087-57.3184-3.3069-8.4064-116.923-69.3158-126.6293-74.3019 .0551,13.1156.8014,34.8865.8014,54.1341 12.1398,6.7805 118.5941,90.5961 130.6366,77.4862z" fill="url(#linearGradient620)" fill-rule="evenodd"/>
<path d="m338.953,81.82028c0-5.78485-117.1973-61.43601-123.4235-61.56446-7.1523-.1475-102.3514,84.50598-99.3801,94.46938 3.1597,7.5324 119.3877,69.5034 127.4309,71.1176 6.231,2.2729 93.8211-97.58364 95.3727-104.02252z" fill="url(#linearGradient1247)" fill-rule="evenodd"/>
<path d="m139.7923,160.3677c.0197-4.382-.1551-9.1479-.4008-14.3294-1.9427-1.0416-15.7919-8.1651-18.8341-8.4918 0,3.5382-.4007,6.5456-.4007,10.0838 1.6029,1.4686 16.783,10.2127 19.6356,12.7374z" fill="url(#linearGradient1242)" fill-rule="evenodd" stroke="#007100" stroke-width="4.09781"/>
</svg>
