<?xml version="1.0" encoding="UTF-8" standalone="no"?>
<!-- Created with Inkscape (http://www.inkscape.org/) -->

<svg
   xmlns:dc="http://purl.org/dc/elements/1.1/"
   xmlns:cc="http://creativecommons.org/ns#"
   xmlns:rdf="http://www.w3.org/1999/02/22-rdf-syntax-ns#"
   xmlns:svg="http://www.w3.org/2000/svg"
   xmlns="http://www.w3.org/2000/svg"
   xmlns:sodipodi="http://sodipodi.sourceforge.net/DTD/sodipodi-0.dtd"
   xmlns:inkscape="http://www.inkscape.org/namespaces/inkscape"
   width="538.44452"
   height="418.57581"
   id="svg2"
   version="1.1"
   inkscape:version="0.48.4 r9939"
   sodipodi:docname="parcel.svg">
  <defs
     id="defs4" />
  <sodipodi:namedview
     id="base"
     pagecolor="#ffffff"
     bordercolor="#666666"
     borderopacity="1.0"
     inkscape:pageopacity="0.0"
     inkscape:pageshadow="2"
     inkscape:zoom="0.35"
     inkscape:cx="647.27296"
     inkscape:cy="-99.9474"
     inkscape:document-units="px"
     inkscape:current-layer="layer1"
     showgrid="false"
     inkscape:window-width="1920"
     inkscape:window-height="1003"
     inkscape:window-x="-9"
     inkscape:window-y="-9"
     inkscape:window-maximized="1"
     fit-margin-top="0"
     fit-margin-left="0"
     fit-margin-right="0"
     fit-margin-bottom="0" />
  <metadata
     id="metadata7">
    <rdf:RDF>
      <cc:Work
         rdf:about="">
        <dc:format>image/svg+xml</dc:format>
        <dc:type
           rdf:resource="http://purl.org/dc/dcmitype/StillImage" />
        <dc:title></dc:title>
      </cc:Work>
    </rdf:RDF>
  </metadata>
  <g
     inkscape:label="Layer 1"
     inkscape:groupmode="layer"
     id="layer1"
     transform="translate(-145.60623,-235.19954)">
    <g
       id="g3803">
      <path
         sodipodi:nodetypes="ccccccccccc"
         inkscape:connector-curvature="0"
         id="path2985"
         d="m 288.57143,650.93361 c -17.16958,2.55121 -59.153,-24.06642 -72.05888,-73.60853 -35.66014,-0.17651 -46.52309,-38.89213 -60.79826,-62.10575 C 146.21137,504.7082 140.67598,377.12682 170,349.50504 180.51514,326.09291 284.28311,314.38428 352.89345,325.49586 410.45759,298.08962 515.66308,289.1059 540,300.93361 c 35.58286,13.13601 52.40322,26.27202 57.54823,39.40803 42.65176,-1.16099 58.41024,24.5713 73.88034,50.59197 15.49451,24.10027 12.1361,135.44896 -2.85714,154.28572 3.85172,21.68185 -149.9578,66.60715 -177.91689,49.49567 -17.93352,27.03837 -113.97757,60.29803 -202.08311,56.21861 z"
         style="fill:#e6e6e6;stroke:#000000;stroke-width:5;stroke-linecap:butt;stroke-linejoin:miter;stroke-miterlimit:4;stroke-opacity:1;stroke-dasharray:none" />
      <path
         sodipodi:nodetypes="ccccccc"
         inkscape:connector-curvature="0"
         id="path3755"
         d="m 175.71429,342.36218 c 27.78311,6.97499 91.43697,26.9474 109.07626,56.83016 27.59834,-3.57632 60.36445,16.55527 84.49517,33.88413 69.81759,43.81014 65.84955,103.76883 67.85713,132.85714 16.32199,-4.87134 39.10876,-9.82781 47.8096,-17.18906 29.21905,4.78625 100.64442,-7.20766 147.19041,-24.23951 33.18413,-29.20098 37.49753,-56.18113 47.14286,-83.57143"
         style="fill:none;stroke:#000000;stroke-width:3;stroke-linecap:butt;stroke-linejoin:miter;stroke-miterlimit:4;stroke-opacity:1;stroke-dasharray:none" />
      <path
         sodipodi:nodetypes="ccc"
         inkscape:connector-curvature="0"
         id="path3757"
         d="m 213.57143,577.36219 c -7.67815,-26.48113 -11.80334,-129.99505 25,-154.28572 42.71513,-43.36268 307.56285,-88.25882 362.14286,-86.42856"
         style="fill:none;stroke:#000000;stroke-width:10;stroke-linecap:round;stroke-linejoin:miter;stroke-miterlimit:4;stroke-opacity:1;stroke-dasharray:none" />
      <path
         sodipodi:nodetypes="ccc"
         inkscape:connector-curvature="0"
         id="path3757-1"
         d="M 492.46408,598.52412 C 510.85652,574.90013 518.55314,444.95764 481.7498,420.66697 439.03467,377.30429 377.75838,330.2653 355.32123,323.52413"
         style="fill:none;stroke:#000000;stroke-width:10;stroke-linecap:round;stroke-linejoin:miter;stroke-miterlimit:4;stroke-opacity:1;stroke-dasharray:none" />
      <path
         inkscape:connector-curvature="0"
         id="path3777"
         d="m 412.14224,359.39754 c 0,0 -105.05587,-91.92389 -51.51778,-98.99495 53.53808,-7.07107 51.51778,98.99495 51.51778,98.99495 z"
         style="fill:none;stroke:#000000;stroke-width:10;stroke-linecap:butt;stroke-linejoin:miter;stroke-miterlimit:4;stroke-opacity:1;stroke-dasharray:none" />
      <path
         sodipodi:nodetypes="csc"
         inkscape:connector-curvature="0"
         id="path3777-7"
         d="m 415.03314,356.42025 c 0,0 116.16755,-54.54825 62.62946,-61.61931 -53.53808,-7.07107 -62.62946,61.61931 -62.62946,61.61931 z"
         style="fill:none;stroke:#000000;stroke-width:10;stroke-linecap:butt;stroke-linejoin:miter;stroke-miterlimit:4;stroke-opacity:1;stroke-dasharray:none" />
      <path
         sodipodi:nodetypes="ccc"
         inkscape:connector-curvature="0"
         id="path3799"
         d="m 439.41635,240.19954 c -30.93181,38.3858 -22.68979,76.77159 -26.26396,115.15739 39.68478,-27.51753 69.05135,-17.267 92.93403,22.22335"
         style="fill:none;stroke:#000000;stroke-width:10;stroke-linecap:round;stroke-linejoin:miter;stroke-miterlimit:4;stroke-opacity:1;stroke-dasharray:none" />
      <path
         transform="matrix(1.1764706,0,0,1.1764706,99.159663,-266.21517)"
         d="m 280,533.07648 c 0,6.70631 -5.43654,12.14285 -12.14285,12.14285 -6.70632,0 -12.14286,-5.43654 -12.14286,-12.14285 0,-6.70632 5.43654,-12.14286 12.14286,-12.14286 6.70631,0 12.14285,5.43654 12.14285,12.14286 z"
         sodipodi:ry="12.142858"
         sodipodi:rx="12.142858"
         sodipodi:cy="533.07648"
         sodipodi:cx="267.85715"
         id="path3801"
         style="fill:#000000;fill-opacity:1;stroke:#000000;stroke-width:0;stroke-linecap:round;stroke-linejoin:miter;stroke-miterlimit:4;stroke-dasharray:none;stroke-dashoffset:0"
         sodipodi:type="arc" />
    </g>
  </g>
</svg>
