<?xml version="1.0" encoding="UTF-8" standalone="no"?>
<!DOCTYPE svg PUBLIC "-//W3C//DTD SVG 20010904//EN" "http://www.w3.org/TR/2001/REC-SVG-20010904/DTD/svg10.dtd">
<svg viewBox="0 0 375 375" xmlns="http://www.w3.org/2000/svg">
<path d="m32.7381,86.30952 209.3254,48.61111 77.38095-90.27777-148.80952-10.9127-137.89682,52.57936z" fill="#ebce7d" fill-rule="evenodd"/>
<path d="m31.74603,86.30952 3.96825,189.48413 206.3492,68.45239 .99207-210.31747-211.30953-47.61905z" fill="#ebce7d" fill-rule="evenodd"/>
<path d="m243.05556,133.92857 75.39682-88.29365 3.96825,134.92064-81.3492,165.67459 1.98413-212.30158z" fill="#ebce7d" fill-rule="evenodd"/>
<path d="m34.72222,276.78572 67.46032-78.37302-69.44444-113.09524 1.98413,191.46826z" fill="#ebce7d" fill-rule="evenodd"/>
<path d="m32.7381,87.30159 92.2619,147.81746 116.07143-101.19048-208.33333-46.62698z" fill="#ebce7d" fill-rule="evenodd"/>
<path d="m164.68254,200.39683 77.38095,145.83334 .99206-212.3016-78.37301,66.46826z" fill="#ebce7d" fill-rule="evenodd"/>
<path d="m30.75397,85.31746 3.96825,190.47619 4.96032-172.61905 62.5,96.23016-54.56349-104.16667 75.39682,11.90476-68.45238-21.8254 116.07143-51.5873-139.88095,51.5873z" fill-opacity=".40625" fill-rule="evenodd"/>
<path d="m228.1746,129.96032-101.19047,103.1746 114.0873-99.20635-12.89683-3.96825z" fill-opacity=".55937" fill-rule="evenodd"/>
<path d="m234.12698,39.68254 69.44445,9.92064-49.60318,70.43651 65.47619-75.39682-85.31746-4.96032z" fill-opacity=".59375" fill-rule="evenodd"/>
<path d="m319.44444,102.18254-6.94444,86.30952-57.53968,128.96826 68.45238-137.89683-3.96826-77.38095z" fill-opacity=".6" fill-rule="evenodd"/>
<path d="m186.50794,241.07143 41.66666,91.26984-65.47619-14.88095 79.36508,28.76984 .99207-151.78572-4.96032,125.99207-51.5873-79.36508z" fill-opacity=".59375" fill-rule="evenodd"/>
<path d="m102.18254,198.4127-37.69841,43.65079 40.6746-36.70635-2.97619-6.94444z" fill-opacity=".55" fill-rule="evenodd"/>
<path d="m54.56349,104.16667 141.86508,19.84127-148.80952-28.76985 6.94444,8.92857z" fill="#fff" fill-opacity=".73438" fill-rule="evenodd"/>
<path d="m40.6746,105.15873-4.96032,168.65079 12.89683-157.73809-7.93651-10.9127z" fill="#fff" fill-opacity=".69063" fill-rule="evenodd"/>
<path d="m120.03968,114.0873 93.25397,28.76984 12.89683-11.90476-54.5635-10.9127-51.5873-5.95238z" fill-opacity=".35625" fill-rule="evenodd"/>
<path d="m241.07143,135.9127-116.07143,98.21428 37.69841-19.84127 36.70635,43.6508-23.80952-53.57143 65.47619-68.45238z" fill-opacity=".1875" fill-rule="evenodd"/>
<path d="m34.72222,271.82539 61.20355-45.63492 27.09009,5.95238-19.0634-28.76984-69.23025,68.45238z" fill-opacity=".26875" fill-rule="evenodd"/>
<path d="m208.33333,290.6746 3.96826,26.78572-175.59524-42.65873 125.99206,42.65873 64.48413,13.88889-18.84921-40.67461z" fill-opacity=".24688" fill-rule="evenodd"/>
<path d="m246.03175,148.80952-5.95238,188.49207 70.4365-153.76984 4.96032-125.99207-69.44444,91.26984z" fill-opacity=".24062" fill-rule="evenodd"/>
</svg>
