<?xml version="1.0" encoding="UTF-8" standalone="no"?>
<svg viewBox="0 0 398.88467 249.00363" xmlns="http://www.w3.org/2000/svg">
<defs>
<filter height="1.53537" id="filter3420" width="1.33631" x="-.16816" y="-.26769">
<feGaussianBlur stdDeviation="5.60831"/>
</filter>
<filter height="2.02043" id="filter3448" width="1.17924" x="-.08962" y="-.51021">
<feGaussianBlur stdDeviation="7.35769"/>
</filter>
<filter height="1.54285" id="filter3492" width="1.41771" x="-.20886" y="-.27143">
<feGaussianBlur stdDeviation="6.82248"/>
</filter>
<filter height="1.50128" id="filter3558" width="1.20908" x="-.10454" y="-.25064">
<feGaussianBlur stdDeviation="8.91782"/>
</filter>
<filter height="1.35764" id="filter3616" width="1.39142" x="-.19571" y="-.17882">
<feGaussianBlur stdDeviation="8.77891"/>
</filter>
<filter height="2.43048" id="filter3738" width="1.55211" x="-.27606" y="-.71524">
<feGaussianBlur stdDeviation="6.1565"/>
</filter>
</defs>
<g transform="translate(-222.07362,-500.13412)">
<path d="m489.84439,604.37832 127.44565-96.0629 .49786,138.97425-127.94351,96.55051v-139.46186z" fill="#fff" fill-rule="evenodd" stroke="#000" stroke-width="6.34079"/>
<path d="m225.23312,603.36658 124.95182-97.30781 .48809,140.77525-125.43991,97.80175v-141.26919z" fill="#fff" fill-rule="evenodd" stroke="#000" stroke-width="6.319"/>
<path d="m225.70233,603.77881h262.88104v141.87088h-262.88104z" fill="#fff" stroke="#000" stroke-width="6.97611"/>
<path d="m228.23383,598.41776 126.18532-96.14429 260.31933,1.45673-127.17891,96.14429-259.32574-1.45673z" fill="#fff" fill-rule="evenodd" stroke="#000" stroke-width="4.27871"/>
<path d="m225.76909,605.36968 64.14469,44.44671h-1.01015" fill="none" stroke="#000"/>
<path d="m483.86307,608.40014-86.87312,44.95179" fill="none" stroke="#000"/>
<path d="m226.27417,745.27581 59.599-33.33504" fill="none" stroke="#000"/>
<path d="m395.9798,710.42555 90.91373,34.34518" fill="none" stroke="#000"/>
<path d="m235.36554,595.77323 142.93659-36.36549" fill="none" stroke="#000"/>
<path d="m354.56354,504.35443 27.27412,26.26396" fill="none" stroke="#000"/>
<path d="m485.88337,598.80369-55.05331-35.86042" fill="none" stroke="#000"/>
<path d="m604.5763,505.36458-119.198,26.26397" fill="none" stroke="#000"/>
<path d="m492.95444,606.88491 42.93149,8.08122" fill="none" stroke="#000"/>
<path d="m615.1829,516.98133-28.78935,58.08377" fill="none" stroke="#000"/>
<path d="m493.96459,743.2555 44.44672-65.65991" fill="none" stroke="#000"/>
<path d="m618.21336,646.78594-32.32488-10.60661" fill="none" stroke="#000"/>
<path d="m236.32153,612.00529c1.11048,2.04437 2.70161,3.76608 4.18567,5.53811 2.38598,3.07822 4.96798,6.01648 7.54674,8.93746 2.94006,3.47298 6.33222,6.49737 9.67785,9.56484 2.07614,2.00398 4.18617,3.94892 6.43011,5.76048 2.08734,1.63409 4.31363,3.0747 6.52076,4.53814 2.45096,1.68588 5.1274,2.8784 7.85651,4.02419 2.02768.74472 4.07415,1.44781 6.1098,2.16548 .97264.33677 1.88193.81191 2.81171,1.25069 1.69925.6983 3.44699,1.25213 5.19164,1.82369 1.80452.45018 3.52556,1.11743 5.23438,1.82059 1.08455.33889 1.65166,1.04097 2.37239,1.83801 .96564.97222 1.75127,2.05375 2.49018,3.20246 .30009.60603.72724,1.13095 1.09121,1.69698l-6.43389,3.76433c-.36187-.58004-.77223-1.12965-1.08523-1.73952-.76973-1.08634-1.50851-2.1686-2.48594-3.09224-.69005-.6069-1.21197-1.30265-2.174-1.57453-1.66548-.67944-3.34077-1.32245-5.08777-1.78241-1.79368-.56709-3.59406-1.12181-5.33203-1.84621-.92281-.41837-1.84475-.83564-2.78104-1.223-1.99142-.7607-3.99002-1.50428-5.97973-2.26983-2.75818-1.17274-5.45108-2.42161-7.93939-4.11439-2.2257-1.47456-4.4798-2.91588-6.56837-4.58517-2.23616-1.83728-4.33653-3.80237-6.35136-5.88514-3.29762-3.14358-6.68548-6.19728-9.68186-9.64005-2.60425-2.91115-5.19365-5.84577-7.66896-8.86576-1.5425-1.79983-3.14968-3.56522-4.42879-5.57016l6.47941-3.73704z" fill="#ff0" filter="url(#filter3492)" stroke="#ff0" stroke-width="4.4"/>
<path d="m252.44631,732.53177c3.74793-1.75913 7.72412-2.97888 11.67415-4.19728 6.84236-2.04709 13.67525-4.15804 20.40987-6.53856 6.10267-2.21847 12.15193-4.60131 18.30615-6.67345 3.67213-1.27315 7.29927-2.65051 11.02469-3.75628 1.79002-.48221 3.53134-1.049 5.35265-1.4058 2.11024-.19856 4.23437-.17822 6.35193-.19096 2.10184-.01828 4.20233-.01493 6.29941.07296 1.37643.09282 2.71417.42562 4.05766.71525 1.4862.17301 2.9195.6148 4.3496,1.03707 2.03151.63102 4.1096,1.09656 6.1765,1.59292 2.06517.45918 4.15216.79601 6.23484,1.16292 3.50119.79106 7.03578,1.38494 10.59636,1.8461 4.81299.53003 9.64347.85721 14.47005,1.23175 4.22121.35114 8.45334.56677 12.67534.90236 3.61414.33439 7.24093.46352 10.86806.5433 4.15052.07232 8.29622.30702 12.44547.43678 3.4651.30719 6.79188-.04212 10.1113-.96621-.74705.77229 3.869-1.86286 2.93735-1.32758-1.44707.83143-2.98096,1.50169-4.47145,2.25254 .88917-1.03095 1.79379-2.04442 2.72139-3.04151 1.04461-1.19438 2.25324-2.23007 3.40563-3.31727 1.16578-1.25803 2.59308-2.2144 3.98436-3.19856l6.85733-2.70952c-1.3878.94835-2.82554,1.87583-4.00355,3.08027-1.11258,1.1061-2.32095,2.11691-3.37445,3.26991-.94763.98873-1.88119,1.97818-2.7286,3.05585-3.08001,2.97133-7.07982,4.99896-11.12165,6.40858-3.34302.72546-6.68262.97371-10.11591.68065-4.15869-.11026-8.31141-.38793-12.47219-.40975-3.64152-.0668-7.2801-.21158-10.90643-.56895-4.1973-.34113-8.40066-.61125-12.59788-.9557-4.83902-.38017-9.67969-.7483-14.50829-1.24723-3.618-.45364-7.20681-1.06558-10.78886-1.74053-2.09576-.35693-4.19178-.71136-6.26197-1.20087-2.08739-.50141-4.17873-.99298-6.23952-1.59729-1.43668-.38952-2.8757-.76149-4.35631-.94908-1.30924-.29776-2.61483-.61521-3.96314-.67782-2.07318-.05789-4.1481-.08342-6.22303-.05811-2.11276.02828-4.2409-.0041-6.33262.33864-1.7579.41341-3.47106.97182-5.22775,1.39325-3.62215,1.09776-7.17665,2.39572-10.76412,3.60445-6.09248,2.07531-12.10574,4.38159-18.15893,6.56824-6.80164,2.36562-13.68261,4.50598-20.5631,6.62934-4.05378,1.30181-8.16134,2.57358-11.93027,4.58605l5.79993-4.68087z" fill="#ff0" filter="url(#filter3448)" stroke="#ff0" stroke-width="4.4"/>
<path d="m466.838,617.34675c-1.31653.9639-2.33831,2.23605-3.3867,3.46922-.94397,1.26308-2.10052,2.34069-3.19028,3.47439-1.62034,1.48485-3.53002,2.63604-5.3837,3.80697-3.71688,2.5185-7.62458,4.73225-11.3993,7.15902-6.89147,4.34649-13.97246,8.39775-21.15671,12.24065-5.16619,2.67441-10.39017,5.2415-15.4911,8.04198-3.84369,2.10198-7.74826,4.06768-11.75895,5.82943-1.28808.62917-2.58339,1.24333-3.87705,1.86088l5.73028-4.56465c1.27181-.59825 2.54175-1.20054 3.81853-1.78821 3.94416-1.74493 7.78542-3.68956 11.57127-5.75621 5.09347-2.75737 10.29464-5.30866 15.42945-7.98689 16.40783-8.85762-3.07419,1.81211 9.16431-5.31487 3.69083-2.42934 7.56331-4.56822 11.1898-7.09567 1.82851-1.10297 3.58737-2.3229 5.31425-3.57418 1.08097-1.1486 2.26079-2.20939 3.234-3.44564 1.02625-1.23104 2.0037-2.52272 3.23178-3.56307l6.96012-2.79315z" fill="#ff0" filter="url(#filter3420)" stroke="#ff0" stroke-width="4.4"/>
<path d="m356.20694,510.2941c-2.07546,2.08999-4.27219,4.05078-6.45947,6.02185-3.53123,3.23118-6.93367,6.59738-10.35592,9.94242-3.63056,3.60058-7.61302,6.79939-11.70494,9.85307-4.04064,3.00884-7.71935,6.48548-11.33069,9.99011-3.12489,3.27166-6.3048,6.47288-9.63512,9.53506-3.0184,2.61775-6.16456,5.07944-9.1887,7.69024-2.58153,2.31261-5.23197,4.54731-7.87431,6.78997-1.78033,1.43536-3.28977,3.13653-4.76874,4.86786-1.31355,1.40413-2.42886,2.95436-3.54178,4.5154-.88434,1.0407-.96002,2.23009-1.15283,3.49891 .11469,1.33653.69134,1.63136 1.63124,2.35504 2.16871.91666 4.53303.9588 6.84507,1.11826 3.47956.12147 6.96233.12381 10.44365.13879 5.6998.23412 11.40215.38059 17.10601.46429 6.15835.07231 12.31718.08597 18.4759.08581 6.44137.11827 12.87093-.32716 19.30327-.59548 6.30361-.21071 12.60177-.30682 18.89549-.72029 5.65927-.45518 11.33698-.57424 17.01148-.65934 5.86999-.06218 11.74034-.05265 17.61053-.07424 4.46667.04027 8.90838-.51938 13.36201-.78711 4.42744-.23214 8.86278-.21915 13.29487-.23102 5.00846-.00391 10.01695.00086 15.0254-.00815 4.9435-.00303 9.88698.01873 14.83047.00903 3.28769-.0131 6.57539-.02412 9.86297-.05519l-5.88389,4.27489c-3.23669-.02592-6.4734-.04659-9.71019-.05589-4.94834-.01078-9.8967.0096-14.84504.00121-5.00441-.01403-10.00898-.02004-15.01335.00394-4.44977.02979-8.90186.0668-13.34579.31869-4.41874.28049-8.83589.76024-13.26848.66439-5.85768-.02148-11.71585-.01779-17.57312.06097-5.67141.09757-11.34146.26965-16.99942.69285-6.26279.40254-12.53433.3831-18.80411.63443-6.46176.28884-12.91948.77854-19.39218.62253-6.15942-.01191-12.31918-.00994-18.47813-.09626-5.75365-.08776-11.50541-.24514-17.25883-.34044-3.52048.01444-7.04313.05692-10.56125-.10364-2.434-.14095-4.90419-.27396-7.15882-1.29342-1.05408-.94174-1.90318-1.45974-2.04051-3.03893 .11537-1.39492.09162-2.7365.97212-3.93487 1.17583-1.55155 2.21194-3.19585 3.58913-4.59158 1.47988-1.77226 2.95344-3.54602 4.76429-4.999 2.69199-2.26093 5.40899-4.49506 8.02524-6.84333 2.99544-2.62621 6.10668-5.10969 9.16445-7.66155 3.37173-3.06127 6.63327-6.22187 9.7423-9.55253 3.59132-3.54675 7.29196-7.029 11.31231-10.08597 4.08922-3.02819 8.08085-6.181 11.71488-9.75498 3.4111-3.32297 6.78011-6.68889 10.26559-9.9348 2.10406-1.90729 4.23429-3.78942 6.17553-5.86505l6.92141-2.86695z" fill="#ff0" filter="url(#filter3558)" stroke="#ff0" stroke-width="4.4"/>
<path d="m504.64673,604.87809c3.05091.78352 6.12541,1.47781 9.21511,2.09676 4.84326.91042 9.48733,2.52446 14.04815,4.3495 3.20035,1.0909 5.50531,3.35387 7.74788,5.748 1.31387,1.64072 2.27041,3.4733 3.10632,5.3869 .68083,1.40806.77078,2.94521.88752,4.47517 .04233,1.74592.05318,3.49276.10131,5.23694 .20208,1.38608.29244,2.7808.39338,4.17613-.05418,1.5472-.77752,2.92731-1.32439,4.34491-.60177,1.69456-1.20051,3.38516-1.86235,5.05736-.76925,1.74011-1.43029,3.52397-2.14276,5.28815-.82118,1.96397-1.73738,3.88479-2.63501,5.81403-.77674,1.62856-1.47412,3.28454-2.29969,4.88949-.87288,1.49791-1.81696,2.93637-2.60622,4.47773-.82611,1.39177-1.22238,2.87871-1.5278,4.44444-.2895,1.7368-.1563,3.45691.0457,5.18707 .30842,1.48907.82082,2.91072 1.34034,4.33254 .43012.81067.98825,1.5388 1.49516,2.29473 .50613.50219 1.15893.76169 1.74964,1.1384 .9559.35367 1.99443.30982 2.99827.36577 1.45184-.00832 2.82272-.55056 4.15157-1.1057 4.43412-3.29798-8.15224,5.75475-.88273-.38413 5.06056-4.14364 10.80361-7.2546 16.51102-10.40928 7.96618-5.00236-5.36247,4.19549 3.57044-2.44569 2.57234-1.93693 4.7226-4.31936 6.93449-6.63723 3.34296-3.29642 6.56054-6.71089 9.79659-10.1115 3.68143-3.71253 7.45943-7.32879 11.16417-11.02027 1.71398-1.48144 3.20226-3.16607 4.64493-4.89735 .77071-1.10932.76295-2.37137.89014-3.65552 .11007-1.4704.00311-2.90163-.23206-4.34874-.4598-2.33809-.55742-4.71424-.65396-7.08721-.08604-2.97654.15145-5.95186.34487-8.91967 .20234-2.88145.5486-5.74833.87586-8.61723 .38477-2.47315.53796-4.96665.65269-7.46335 .0343-2.15351.03885-4.30179.17223-6.45105 .14829-1.52914.24566-3.06299.34906-4.59508 .0877-1.21021.4824-2.3391.8427-3.48416s.91902-2.21883 1.44498-3.29546c.26052-.44815.60182-.83926.90191-1.25774l6.91064-2.86563c-.31047.37212-.8293.61964-.95755,1.14771-.57205.99549-1.20815,1.96897-1.55917,3.09653-.35569,1.10915-.78613,2.19444-.89878,3.36491-.1353,1.52597-.27705,3.0617-.41702,4.59221-.19173,2.14542-.21409,4.28967-.24614,6.44397-.11054,2.52065-.217,5.04166-.64068,7.53491-.33651,2.862-.73152,5.71902-.91711,8.5972-.19908,2.93833-.45975,5.8846-.36147,8.83221 .11528,2.32092.19633,4.65447.68607,6.93538 .31044,1.49344.45486,2.95469.35006,4.48667-.08804,1.38096-.0546,2.77758-.72488,4.03585-1.41018,1.89303-3.00844,3.61933-4.8407,5.13637-3.78017,3.67115-7.56804,7.3375-11.30409,11.04952-3.15998,3.38202-6.30816,6.76815-9.59165,10.03161-2.22983,2.32406-4.32686,4.7806-6.9035,6.74453-4.85434,3.83297-10.43786,6.61936-15.83494,9.60397-3.90313,2.17952 7.33218-4.64383-4.20555,3.18778-3.55798,3.06761-7.35691,5.80304-11.70472,7.70993-1.42103.49064-2.83431.99739-4.36635.87479-1.10521-.09937-2.23711-.07421-3.2381-.62686-.66129-.42535-1.37234-.77075-1.89567-1.38161-.53253-.82461-1.11729-1.61958-1.56012-2.50319-.52338-1.48209-1.03028-2.96586-1.38203-4.50364-.23534-1.79368-.41902-3.57743-.14932-5.38679 .23607-1.63149.51477-3.20097 1.43188-4.61687 .71903-1.60452 1.62407-3.06775 2.60477-4.53164 .87437-1.58511 1.5521-3.24552 2.3073-4.89043 .92462-1.91168 1.88651-3.80819 2.6772-5.78242 .69633-1.74989 1.34099-3.52219 2.11879-5.23401 .65505-1.66697 1.29238-3.32947 1.86218-5.02918 .48075-1.36971 1.14978-2.66516 1.42903-4.09225-.08945-1.39454-.17212-2.78833-.36198-4.17453-.067-1.74816-.0677-3.49765-.10745-5.2481-.09918-1.44381-.16357-2.89686-.76905-4.2391-.75813-1.8685-1.65104-3.65278-2.89743-5.25557-2.1538-2.29842-4.36119-4.4493-7.40547-5.55648-4.51254-1.86337-9.16925-3.36999-13.98677-4.22424-3.17366-.60129-6.32809-1.28785-9.49434-1.92587l6.13465-4.2553z" fill="#ff0" filter="url(#filter3616)" stroke="#ff0" stroke-width="4.4"/>
<path d="m507.51983,514.27426c3.54065-.57351 7.14628-.60124 10.72396-.70694 5.0645-.11802 10.13042-.16376 15.19596-.215 2.55509-.16924 5.05123-.00427 7.54302.51795 1.86271.80435 3.70884,1.64656 5.56908,2.45454 1.12483.36154 1.98793,1.13955 2.92238,1.80028 .79425.6591.81009,1.52802 1.10775,2.39201-.0855,1.11166-.8766,1.73616-1.52906,2.53607-.9552.86524-1.87555,1.76782-2.81186,2.65308-.31974.34413-.66537.66222-.99805.99334l-6.87478,2.84707c.33851-.32112.62962-.69215 1.01552-.96336 .8986-.90954 1.79209-1.84309 2.75552-2.68011 .61663-.64415 1.40329-1.19447 1.74598-2.02902-.21001-.5593-.05361-1.35688-.78012-1.79656-.87668-.60797-1.70172-1.29868-2.72762-1.66793-1.80705-.81148-3.5946-1.68178-5.46667-2.33706-2.40744-.42684-4.8227-.58582-7.27465-.50114-5.0272-.02183-10.05562-.01459-15.0805.15955-3.71342.15505-7.42296.36389-11.09745.94723l6.06159-4.404z" fill="#ff0" filter="url(#filter3738)" stroke="#ff0" stroke-width="4.4"/>
</g>
</svg>
