<?xml version="1.0" encoding="UTF-8" standalone="no"?>
<!DOCTYPE svg PUBLIC "-//W3C//DTD SVG 20010904//EN" "http://www.w3.org/TR/2001/REC-SVG-20010904/DTD/svg10.dtd">
<svg viewBox="0 0 437.5 437.5" xmlns="http://www.w3.org/2000/svg">
<defs>
<linearGradient id="linearGradient1242" x1="-2.89310993e-8" x2="1">
<stop offset="0" stop-color="#ff0"/>
<stop offset="1" stop-color="#00af00"/>
</linearGradient>
</defs>
<path d="m11.11115,187.4991-4.16668,79.1669 227.77863,126.3894-2.7778-33.3335c0,0 11.1112-86.1114 2.7778-83.3336s-226.38973-88.8892-223.61195-88.8892z" fill="#ffc53d" fill-rule="evenodd"/>
<path d="m429.2379,181.5116c-.4281-12.7417-27.9804-9.9143-32.0063-6.1069-2.535,10.5332-144.7903,204.4982-158.6984,227.4809 48.6977-30.6258 167.4176-134.9652 189.3711-152.6717 3.2149-19.2672 1.3336-58.0153 1.3336-68.7023z" fill-opacity=".3214" fill-rule="evenodd"/>
<path d="m9.72226,177.7768 175.00064-134.72271c0,0 191.6674,73.61141 188.8896,73.61141s-8.3333,29.1667-11.1111,29.1667-129.1672,136.1117-140.2783,130.5561-216.66752-97.2226-212.50084-98.6115z" fill="#ffff3d" fill-rule="evenodd"/>
<path d="m59.49565,250.6273c.0327-6.3029-.2581-13.1576-.66681-20.6105-3.23272-1.4981-26.27731-11.744-31.33962-12.2139 0,5.0891-.6668,9.4148-.6668,14.5038 2.6672,2.1123 27.92664,14.6892 32.67323,18.3206z" fill="url(#linearGradient1242)" fill-rule="evenodd" stroke="#007100" stroke-width="6.33949"/>
<path d="m231.9453,268.0549 8.3334,45.8335-8.3334,43.0557 11.1112,18.0557c0,0 161.1117-159.7229 158.3339-158.334s-8.3334-88.8892-8.3334-88.8892l-161.1117,140.2783z" fill="#ffdc68" fill-rule="evenodd"/>
<path d="m28.51389,183.125c54.82984,27.1789 153.38781,75.7797 187.74951,80.7637 33.4299-29.5815 143.4259-119.1691 141.4902-131.9425-3.8716-25.5469-168.3994-85.53993-173.5869-85.6337-5.9063-.09376-45.3976,30.12497-83.1233,62.3594s-73.68576,66.4843-72.52951,74.4531zm204.92361,223.75c4,0 170.8125-167.875 171-184.25 1.875-22.75 10.0625-95.0625-3.25-107.5-14.25-13.25-210.0625-87.25-221.875-87.74999-13.125-1.74999-169.0625,130.74999-176,144.56249-3.4375,7.3125-5.6875,103.0625 2.0625,110 13.625,11.125 220.25,131.3125 228.0625,124.9375zm-5.4652-20.9931c-54.1007-44.2639 23.3967-55.4735-9.732-88.955s-176.88354-89.2347-190.15524-94.808c-26.54341-11.1467-18.6545,39.5374-16.9045,59.4436 5.8125,4.3125 61.06942,43.4132 109.65624,68.3976s94.6701,46.9635 107.1355,55.9218zm161.5277-248.243c-26.2622,50.6146-142.6155,111.2213-148.009,129.5876-2.6968,9.1831 26.9866,24.5949 11.8402,39.6232-29.9155,40.7718-11.977,54.869-6.5908,57.3544 17.33,5.2186 136.7839-139.7892 139.9401-144.961 1.875-6.8282 3.1945-77.323 2.8195-81.6042z" fill="#bca119" fill-rule="evenodd"/>
<path d="m138.644,134.0414 222.7809,162.3484 21.8085-32.4573-222.7807-162.3484-21.8087,32.4573z" fill="#f00" fill-rule="evenodd"/>
<path d="m330.8185,74.78082-174.56,217.11158 29.1651,25.4319 174.5601-217.1115-29.1652-25.43198z" fill="#f00" fill-rule="evenodd"/>
</svg>
