<?xml version="1.0" encoding="UTF-8" standalone="no"?>
<!DOCTYPE svg PUBLIC "-//W3C//DTD SVG 20010904//EN" "http://www.w3.org/TR/2001/REC-SVG-20010904/DTD/svg10.dtd">
<svg viewBox="0 0 60 60" xmlns="http://www.w3.org/2000/svg">
<path d="m4.58067,37.86008h31.30127v24.93922h-31.30127z" fill="#b3b3b3" fill-rule="evenodd" stroke="#4c4c4c" stroke-linecap="round" stroke-linejoin="round" stroke-width="2.52755" transform="matrix(.774389,.000000,.000000,.710631,7.153700,12.56163)"/>
<path d="m35.88195,31.49803h30.79231v31.30127h-30.79231z" fill="#7f7f7f" fill-rule="evenodd" stroke="#4c4c4c" stroke-linecap="round" stroke-linejoin="round" stroke-width="3.30057" transform="matrix(.547480,-.432413,.000000,.589462,15.37052,35.71036)"/>
<path d="m25.70267,1.46917h31.04679v12.72409h-31.04679z" fill="#7f7f7f" fill-rule="evenodd" stroke="#4c4c4c" stroke-linecap="round" stroke-linejoin="round" stroke-width="2.47862" transform="matrix(.805265,.000000,-.469268,.710631,12.72730,16.45432)"/>
<path d="m4.9624,35.06078-11.06996-7.7617 20.35855-16.41408 11.32444,7.12549-20.61303,17.05029z" fill="#b3b3b3" fill-rule="evenodd" stroke="#4c4c4c" stroke-linecap="round" stroke-linejoin="round" stroke-width="2.42126" transform="matrix(.774389,.000000,.000000,.774389,7.153700,12.45914)"/>
<path d="m8.65238,12.41189h32.06472v32.06472h-32.06472z" fill="#b3b3b3" fill-rule="evenodd" stroke="#4c4c4c" stroke-linecap="round" stroke-linejoin="round" stroke-width="3.35126" transform="matrix(.774389,.000000,-.508720,.404228,26.55055,21.51348)"/>
<path d="m27.73852,23.48185v12.46961" fill="none" stroke="#4c4c4c" stroke-width="1.85731" transform="matrix(1.009527,.000000,.000000,1.009527,-1.072870,3.082918)"/>
<path d="m37.09759,33.23768c-7.23746-22.91944-20.18006-19.17226-20.30851-19.17226v5.78039l-7.59147-8.41312 7.6557-8.73537v5.84462c0,0 20.86986-2.73246 20.24428,24.69574z" fill="#7f7f7f" fill-rule="evenodd" stroke="#333" stroke-linecap="round" stroke-linejoin="round" stroke-width="3.125" transform="translate(-6.658,.35989)"/>
<g stroke="#4c4c4c">
<path d="m799.18982,123.26389a60.18518,60.18518 0 1,0 -120.37037,0 60.1852,60.1852 0 1,0 120.37055.00011l-60.18536-.00011z" fill="#7f7f7f" fill-rule="evenodd" stroke="#4c4c4c" stroke-width="5.42106" transform="matrix(.115291,0,0,.115291,-62.25729,34.182282)"/>
<path d="m82.16357,59.9778 .91516-3.70147 5.59262-8.94819-2.94884,1.42357-5.79599-6.50777 1.01685-.40674 5.28757,4.88083 4.77914-7.11788-1.42357-.50842-1.32189,1.52526-2.03368-2.23705 .91516-.6101 2.74546.81347 3.35557-2.5421h2.33872m-18.03774-25.42098-2.80746,1.01684 3.76231,4.47409-3.96567,4.77914-1.2202-1.01684 1.42357-1.11852-3.76231-1.01684-4.77914,6.10104 1.72862.30505 .6101,2.23705 1.72862-2.33873-.30504-1.83031 1.11853-2.13536h.91516l-1.22022,2.33873 .91516,1.22021-.10169,2.5421-5.89767,1.62694-3.76231,2.33873 .71179,3.05052-3.66062-.40674-.6101,2.23705-.7118,1.42357 1.2202.71179 .6101.40674 2.13537.10168 1.52526-2.84715h.81347l.6101-.91516 2.74547-.91515 2.74546,3.66062 1.01685-1.01684-2.54211-3.05052h1.01685l3.86398,5.18588 1.11853-2.94883 1.52526-.20337 .40673-3.45725 5.0842,1.01684-.10168,1.22021-5.79599,2.13536 .71179,1.72863 4.06735-.81347-.10168,3.76231-2.84715,1.01684-4.27073-.71179-.71179,1.22021-4.77914-1.32189-.10169-2.33873-10.47344,1.22021-.50842,2.23705-3.66062,2.23705-.81347,4.88083 3.96567,5.6943 8.54145,1.32189 2.54209,1.01684-.40673,1.72863 2.13536,1.83031 .40675,1.01684-1.22022,1.22021 2.94884,1.22021" fill="#7f7f7f" fill-rule="evenodd" stroke="#4c4c4c" stroke-linecap="round" stroke-linejoin="round" stroke-width="1.97835" transform="matrix(.252736,0,0,.252736,5.752077,39.187022)"/>
<path d="m44.54051,22.21221 2.74547-1.01684v-1.01684h.71179v1.01684l1.42357-.10168 4.06736-6.20272-4.67746,1.93199v-.10168" fill="#7f7f7f" fill-rule="evenodd" stroke="#4c4c4c" stroke-linecap="round" stroke-linejoin="round" stroke-width="1.97835" transform="matrix(.252736,0,0,.252736,5.752077,39.187022)"/>
<path d="m53.69207,19.26337 4.16904-1.72863 3.76231-.50842 4.06735-4.27073-4.67746-.6101-3.1522,3.45725-4.16904,3.66062z" fill="#7f7f7f" fill-rule="evenodd" stroke="#4c4c4c" stroke-linecap="round" stroke-linejoin="round" stroke-width="1.97835" transform="matrix(.252736,0,0,.252736,5.752077,39.187022)"/>
<path d="m61.52173,28.71998 2.64378-.71179-1.32189-2.44041 .71179-.6101-.81347-.81347-1.22022,4.57578z" fill="#7f7f7f" fill-rule="evenodd" stroke="#4c4c4c" stroke-linecap="round" stroke-linejoin="round" stroke-width="1.97835" transform="matrix(.252736,0,0,.252736,5.752077,39.187022)"/>
<path d="m61.115,27.49977 .30506-1.62694-1.72863,1.11852 1.42357.50842z" fill="#7f7f7f" fill-rule="evenodd" stroke="#4c4c4c" stroke-linecap="round" stroke-linejoin="round" stroke-width="1.97835" transform="matrix(.252736,0,0,.252736,5.752077,39.187022)"/>
</g>
</svg>
