<?xml version="1.0" encoding="UTF-8" standalone="no"?>
<!DOCTYPE svg  PUBLIC '-//W3C//DTD SVG 1.1//EN'  'http://www.w3.org/Graphics/SVG/1.1/DTD/svg11.dtd'>
<svg id="flash0.ai" style="enable-background:new 0 0 35 24.5" xmlns="http://www.w3.org/2000/svg" xml:space="preserve" height="24.5px" viewBox="0 0 35 24.5" width="35px" version="1.1" y="0px" x="0px" xmlns:xlink="http://www.w3.org/1999/xlink">
<g clip-rule="evenodd" fill-rule="evenodd">
	<path d="m34.5 3.25c-1.366 0.833-2.434 1.5-3.2 2v-0.05h-0.05l-0.05 0.1c-0.134 0.1-0.267 0.184-0.4 0.25v-0.05l-0.1 0.1c-0.1-0.167-0.217-0.317-0.35-0.45l-0.1-0.1 1-0.6c0.733-0.233 1.167-0.467 1.3-0.7 0.101-0.2 0.066-0.35-0.1-0.45-0.3-0.2-0.45-0.317-0.45-0.35l1.2-0.1h0.1c0.566 0.067 0.967 0.2 1.2 0.4zm-14.55-0.35c-0.3-0.033-0.584-0.066-0.851-0.1 0.367-0.233 0.684-0.417 0.95-0.55l0.5-0.35 0.3-0.1 0.5 0.25c-0.133 0.267-0.216 0.417-0.25 0.45-0.132 0.1-0.516 0.233-1.149 0.4zm-3.8 1.75v0.15c-0.066 0-0.15 0.017-0.25 0.05 0.1-0.067 0.183-0.133 0.25-0.2zm12.55 1.2c0.333 0.167 0.616 0.367 0.85 0.6-0.967 0.7-2.1 1.367-3.399 2-0.2-0.067-0.267-0.167-0.2-0.3 0.033-0.066 0.2-0.183 0.5-0.35 0.467-0.267 0.767-0.5 0.899-0.7 0.167-0.2 0.2-0.317 0.101-0.35-0.2-0.067-0.316-0.117-0.351-0.15 0.067-0.133 0.233-0.233 0.5-0.3l0.6-0.2c0.067-0.033 0.234-0.117 0.5-0.25zm-13.75-3.55c0.1-0.033 0.183-0.083 0.25-0.15l1.3-0.4 0.75-0.4c0.267-0.067 0.717-0.067 1.35 0h0.3c-0.567 0.3-1.233 0.7-2 1.2l-1.95-0.25zm-2.9 1.05l2.4 0.3c0.033 0.067 0.083 0.15 0.15 0.25 0.033 0.033 0.1 0.067 0.2 0.1-0.767 0.533-1.417 1.033-1.95 1.5h-1.4c-0.667 0.033-1.05-0.033-1.15-0.2-0.033-0.033-0.05-0.183-0.05-0.45l-0.1-1c-0.033-0.2-0.017-0.317 0.05-0.35 0.033-0.033 0.133-0.05 0.3-0.05l1.55-0.1zm7.55 3.95l-1.6-0.35c-0.3-0.067-0.467-0.117-0.5-0.15l0.05-0.8c0.3-0.033 1.117 0.033 2.45 0.2l0.6 0.55c-0.4 0.367-0.734 0.55-1 0.55zm-13.25-2c-0.133-0.233-0.033-0.35 0.3-0.35l1.8 0.2c0.2 0.067 0.35 0.05 0.45-0.05l-0.4 0.5c-0.233 0.1-0.483 0.15-0.75 0.15-0.1 0-0.283-0.05-0.55-0.15-0.067 0-0.217-0.033-0.45-0.1-0.267-0.1-0.4-0.167-0.4-0.2z" fill="#D0B379"/>
	<path d="m29.05 4.3c-0.434-0.133-2.967-0.517-7.6-1.15 0.133-0.1 0.3-0.2 0.5-0.3 0.533-0.2 0.8-0.4 0.8-0.6 0.033-0.1-0.017-0.25-0.15-0.45-0.166-0.2-0.25-0.35-0.25-0.45h0.25l8.551 1.3 0.6 0.1-2.3 1.15-0.401 0.4zm-7.8 0.2l4.4 0.55c0.566 0.067 1.066 0.167 1.5 0.3l-0.35 0.2c-0.533 0.567-0.967 0.9-1.3 1-0.134 0.067-0.4 0.034-0.8-0.1-1-0.567-1.767-0.983-2.3-1.25-0.367-0.2-0.75-0.433-1.15-0.7zm-6.65 1.4c0.5-0.167 0.8-0.267 0.9-0.3l1.45-0.25c0.133 0.767 0.017 1.433-0.35 2l-0.25 0.2-3.2-0.45c0.267-0.267 0.633-0.583 1.1-0.95 0.1-0.1 0.217-0.183 0.35-0.25zm-3.45 0.9l-0.15-0.05h0.45c-0.035 0.001-0.084 0.034-0.15 0.1l-0.15-0.05zm4.75-6.15c-0.4 0.2-0.95 0.533-1.65 1-0.3 0.133-0.683 0.15-1.15 0.05-0.533-0.133-0.917-0.233-1.15-0.3-0.633-0.133-1.034-0.283-1.2-0.45l0.4-0.15 0.25-0.2 0.45-0.1c0.433 0 0.717-0.017 0.85-0.05h0.1l1.45-0.05 1.75 0.15-0.1 0.1zm4.1 4.45c-0.1 0.333-0.384 0.45-0.85 0.35-0.334-0.067-0.5-0.217-0.5-0.45 0.033-0.5 0.433-0.583 1.199-0.25l0.151 0.35zm-11.6-0.8c0.434-0.133 0.767-0.2 1-0.2l0.45 0.4c-0.233 0.233-0.5 0.35-0.8 0.35-0.733 0-1.117-0.017-1.15-0.05-0.167-0.167 0-0.333 0.5-0.5z" fill="#B99E64"/>
	<path d="m30.25 5.05c-0.366-0.367-0.767-0.617-1.2-0.75l0.4-0.4 2.3-1.15-0.6-0.1 1.05 0.15c0.366 0 0.7 0.017 1 0.05l-1.2 0.1c0 0.033 0.15 0.15 0.45 0.35 0.166 0.1 0.2 0.25 0.1 0.45-0.133 0.233-0.566 0.467-1.3 0.7l-1 0.6zm-13.9 2.5l0.25-0.2c0.367-0.567 0.483-1.233 0.35-2l-1.45 0.25c-0.1 0.033-0.4 0.133-0.9 0.3 0.5-0.467 0.933-0.816 1.3-1.05 0.1-0.033 0.183-0.05 0.25-0.05v-0.15c0.133-0.1 0.267-0.183 0.4-0.25 0.233-0.133 0.45-0.267 0.65-0.4l4.05 0.5c0.4 0.267 0.783 0.5 1.15 0.7 0.533 0.267 1.3 0.683 2.3 1.25 0.399 0.133 0.666 0.167 0.8 0.1 0.333-0.1 0.767-0.433 1.3-1l0.351-0.2c0.633 0.133 1.149 0.3 1.55 0.5-0.267 0.133-0.434 0.217-0.5 0.25l-0.601 0.2c-0.267 0.067-0.433 0.167-0.5 0.3 0.034 0.033 0.15 0.083 0.351 0.15 0.1 0.033 0.066 0.15-0.101 0.35-0.133 0.2-0.433 0.433-0.899 0.7-0.3 0.167-0.467 0.284-0.5 0.35-0.066 0.133 0 0.233 0.2 0.3-0.067 0.033-0.134 0.066-0.2 0.1l-2.451-0.35h-1.1l-0.65-0.1c-0.7 0.033-1.217 0.033-1.55 0-1.233-0.2-2.15-0.333-2.75-0.4l-1.1-0.15zm5.1-4.4c-0.5-0.1-1-0.183-1.5-0.25 0.633-0.167 1.017-0.3 1.149-0.4 0.034-0.033 0.117-0.183 0.25-0.45l-0.5-0.25 0.65-0.3v-0.1h0.05c0-0.066 0.017-0.133 0.05-0.2l0.9 0.15h-0.15c0 0.1 0.084 0.25 0.25 0.45 0.134 0.2 0.184 0.35 0.15 0.45 0 0.2-0.267 0.4-0.8 0.6-0.199 0.1-0.366 0.2-0.499 0.3zm-11.9-1.45c-0.067-0.133 0.017-0.25 0.25-0.35l0.95-0.4c0.167 0.167 0.567 0.316 1.2 0.45 0.233 0.067 0.617 0.167 1.15 0.3 0.467 0.1 0.85 0.083 1.15-0.05 0.7-0.467 1.25-0.8 1.65-1 1.1 0.067 2.35 0.183 3.75 0.35-0.233 0.067-0.483 0.183-0.75 0.35h-0.3c-0.633-0.067-1.083-0.067-1.35 0l-0.75 0.4-1.3 0.4c-0.067 0.067-0.15 0.117-0.25 0.15l-5.4-0.6zm5.25 2.3c-0.1-0.033-0.167-0.067-0.2-0.1-0.067-0.1-0.117-0.183-0.15-0.25l0.7 0.1c-0.133 0.067-0.25 0.15-0.35 0.25zm-6.25-1.1l3.5 0.45-1.55 0.1c-0.167 0-0.267 0.017-0.3 0.05-0.067 0.033-0.083 0.15-0.05 0.35l0.1 1c0 0.267 0.017 0.417 0.05 0.45 0.1 0.167 0.483 0.233 1.15 0.2h1.4c-0.467 0.367-0.867 0.717-1.2 1.05-0.033 0.067-0.1 0.133-0.2 0.2h-0.45l0.15 0.05c-0.3-0.066-0.583-0.117-0.85-0.15l-3.4-0.55c-0.107-0.021-0.207-0.038-0.3-0.05l-0.2-0.05-1.3-0.2c-0.233 0-0.467-0.066-0.7-0.2l-0.45-0.1c-0.4 0-0.617-0.033-0.65-0.1-0.067-0.1 0.1-0.2 0.5-0.3 0.333-0.1 0.6-0.15 0.8-0.15l0.75-0.15c0.467-0.133 1.15-0.483 2.05-1.05 0.2-0.1 0.517-0.217 0.95-0.35 0.267-0.067 0.367-0.2 0.3-0.4-0.026-0.051-0.059-0.085-0.1-0.1zm11.45 2.2l-0.15-0.35c-0.767-0.333-1.166-0.25-1.2 0.25 0 0.233 0.166 0.383 0.5 0.45 0.466 0.1 0.75-0.017 0.85-0.35zm-0.4 2.2c0.267 0 0.601-0.183 1-0.55l-0.6-0.55c-1.333-0.167-2.15-0.233-2.45-0.2l-0.05 0.8c0.033 0.034 0.2 0.083 0.5 0.15l1.6 0.35zm-13.25-2c0 0.034 0.133 0.1 0.4 0.2 0.233 0.067 0.383 0.1 0.45 0.1 0.267 0.1 0.45 0.15 0.55 0.15 0.267 0 0.517-0.05 0.75-0.15l0.4-0.5c-0.1 0.1-0.25 0.117-0.45 0.05l-1.8-0.2c-0.333 0-0.433 0.117-0.3 0.35zm2.05-1c-0.5 0.167-0.667 0.333-0.5 0.5 0.033 0.034 0.417 0.05 1.15 0.05 0.3 0 0.567-0.117 0.8-0.35l-0.45-0.4c-0.233 0-0.567 0.067-1 0.2z" fill="#C6A86C"/>
	<path d="m33.95 13.45h0.1c0.1 0.033 0.35-0.117 0.75-0.45l-0.1 1.8v0.15 0.399l0.1 0.351v0.149l-0.25 0.7c-0.3 0.733-0.649 1.316-1.05 1.75-0.1 0.101-0.267 0.2-0.5 0.3-0.233 0.101-0.384 0.184-0.45 0.25-0.1 0.167-0.149 0.667-0.149 1.5l-0.7 0.7c0-0.133-0.017-0.25-0.05-0.35-0.167-1.334-0.25-2.75-0.25-4.25-0.233-5.267-0.351-8.434-0.351-9.5 0-0.367-0.066-0.717-0.2-1.05l0.35-0.599 0.05-0.1h0.05v0.05c0 0.467-0.05 1.183-0.149 2.15v0.2 0.15l0.5 9.85 0.1 0.601 0.1 2.05 0.25-0.3c0.167-0.267 0.25-0.65 0.25-1.15-0.033-0.566-0.05-0.983-0.05-1.25 0.5-0.033 0.884-0.25 1.15-0.649 0.366-0.467 0.533-0.934 0.5-1.4-0.667 0.033-1.15 0.017-1.45-0.05-0.033-0.167 0.1-0.434 0.4-0.8-0.067 0.166-0.067 0.3 0 0.399 0.267 0.634 0.683 0.384 1.25-0.75l-0.751-0.151h-0.05l0.101-0.101 0.499-0.599zm-2.8 8.15c-0.101 0.233-0.267 0.367-0.5 0.4h-0.05v-0.2c-0.267 0.134-0.666 0.316-1.199 0.55-0.534 0.267-0.95 0.534-1.25 0.801-0.567 0.5-0.983 0.767-1.25 0.8-0.167 0.066-0.384 0.066-0.65 0h-0.051v-0.151c-0.467-0.333-0.783-0.616-0.95-0.85-0.333-0.467-0.65-0.816-0.95-1.05-0.8-0.601-1.267-1-1.399-1.2l0.25 0.399c-0.601-0.533-1.134-0.949-1.601-1.25l-0.1-0.05-0.8-0.5h0.15c0.334-0.033 0.767 0.15 1.3 0.55l4.051 3.45 0.05 0.05v0.101h0.1c0.367-0.134 0.65-0.351 0.851-0.65 0.199-0.233 0.616-0.533 1.25-0.899 0.566-0.367 0.966-0.7 1.199-1 0.301-0.367 0.5-0.601 0.601-0.7 0.1-0.066 0.233-0.066 0.399 0-0.066-1.9-0.166-3.566-0.3-5-0.1-5.034-0.25-7.784-0.45-8.25-0.066-0.167-0.166-0.333-0.3-0.5-0.233-0.233-0.517-0.434-0.85-0.6-0.4-0.2-0.917-0.367-1.55-0.5-0.434-0.133-0.934-0.233-1.5-0.3l-4.4-0.55-4.051-0.501c-0.2 0.133-0.417 0.267-0.65 0.4-0.133 0.067-0.267 0.15-0.4 0.25-0.067 0.067-0.15 0.133-0.25 0.2-0.367 0.233-0.8 0.583-1.3 1.05-0.133 0.067-0.25 0.15-0.35 0.25-0.467 0.367-0.833 0.684-1.1 0.95-0.333 0.267-0.55 0.467-0.65 0.6-0.033 0.033-0.05 0.083-0.05 0.15-0.167 0.433-0.184 1.8-0.05 4.1 0 0.267 0.017 0.55 0.05 0.85-0.034 0.3-0.034 0.983 0 2.05 0.033 0.601 0.066 1.317 0.1 2.15v0.15l0.7-0.101 0.75-0.349-0.05 0.05 4.35-2.5 0.45-0.35c0.8-0.534 1.3-0.867 1.5-1l3.65-1.7c-0.267 0.267-1.067 0.983-2.4 2.149-0.6 0.534-1.1 0.867-1.5 1-0.866 0.267-1.384 0.567-1.55 0.9l-0.05 0.2c-0.067 0.233 0 0.517 0.199 0.85 0.034 0.033 0.051 0.066 0.051 0.101 0.199 0.366 0.316 0.616 0.35 0.75-0.667-0.367-1.15-0.65-1.45-0.851-0.567-0.299-1.083-0.349-1.55-0.149-0.667 0.366-1.167 0.583-1.5 0.649l-0.1 0.05-0.7 0.151-0.35 0.25c-0.3 0.134-0.567 0.233-0.8 0.3v0.2c0 0.167 0.017 0.316 0.05 0.45v0.5c0.033 0.533 0.066 1.017 0.1 1.45 0 0.566 0.017 1.017 0.05 1.35v0.35 0.05c1.767 0.166 3.067 0.35 3.9 0.55 0.2 0.033 0.6 0.149 1.2 0.35 0.467 0.134 0.851 0.217 1.15 0.25 0.434 0.033 1.066 0.066 1.9 0.101l1.85 0.35c0.9 0.167 1.483 0.184 1.75 0.05 0.1-0.6-0.116-1.166-0.65-1.7l2.35 2.099 0.05 0.55c-0.333 0-0.65-0.05-0.95-0.15-0.666-0.033-1.149-0.083-1.45-0.149l-1-0.2-7.5-0.65c-0.367 0-1.184-0.1-2.45-0.3 0.033 0.033 0.05 0.066 0.05 0.101l-0.35 0.1c0-0.066 0.017-0.134 0.05-0.2-0.1 0-0.183-0.033-0.25-0.1-0.233-0.134-0.35-0.4-0.35-0.8v-0.351-0.5-0.35-0.3-0.45-1.45-0.55c-0.033-0.101-0.033-0.2 0-0.3-0.033-0.134-0.033-0.25 0-0.351-0.033-0.133-0.033-0.267 0-0.399-0.033-0.834-0.033-1.534 0-2.101v-2.25c0-0.1 0.017-0.383 0.05-0.85 0-0.5-0.017-1.184-0.05-2.05 0-1.1 0.034-1.8 0.1-2.1 0.033-0.066 0.05-0.117 0.05-0.15 0.1-0.133 0.316-0.333 0.65-0.6 0.233-0.267 0.566-0.583 1-0.95 0.033-0.033 0.066-0.067 0.1-0.1 0.567-0.5 1.05-0.9 1.45-1.2 0.267-0.233 0.517-0.417 0.75-0.55 0-0.033 0.017-0.05 0.05-0.05 0.533-0.367 1.017-0.684 1.45-0.95 0.699-0.467 1.267-0.833 1.699-1.1 0.434-0.267 0.801-0.467 1.101-0.6 0.467-0.2 0.816-0.25 1.05-0.15v0.1l-0.65 0.3-0.3 0.1-0.5 0.35c-0.267 0.133-0.583 0.317-0.95 0.55-0.133 0.1-0.284 0.2-0.45 0.3-0.067 0.066-0.117 0.15-0.15 0.25 0 0.167 0.1 0.316 0.3 0.45l6.75 0.85c0.8 0.1 1.483 0.233 2.05 0.4 0.601 0.167 1.084 0.383 1.45 0.65 0.3 0.167 0.533 0.367 0.7 0.6 0.066 0.067 0.116 0.15 0.15 0.25 0.133 0.267 0.267 1.35 0.4 3.25 0.066 1.333 0.134 2.434 0.2 3.3 0.066 0.834 0.116 1.45 0.15 1.851 0.199 1.866 0.366 4.066 0.5 6.6v0.049zm-19.1-18.25l-3.5-0.45h-0.05l-2.6-0.35-0.65-0.1h-0.05c0-0.133 0.033-0.25 0.1-0.35l10.3 1.3c-0.167 0.1-0.317 0.217-0.45 0.35l-0.7-0.1-2.4-0.3zm-6.65 14.55l-1.6 1-0.25 0.05-1.3 0.3c-0.333 0.134-0.583 0.25-0.75 0.35-0.333 0.134-0.55 0.284-0.65 0.45-0.3 0.467 0.05 0.767 1.05 0.9 0.533 0.066 1.184 0.1 1.95 0.1l3.65 0.35c1.2 0.1 2.3 0.199 3.3 0.3v0.5c0 0.2 0.034 0.383 0.1 0.55l-7.4-1.15c-1.667 0-2.7-0.1-3.1-0.3h-0.1l-0.05-1.4h0.05c0.733-0.5 1.217-0.817 1.45-0.95 0.467-0.233 0.9-0.367 1.3-0.4-0.3 0-0.533 0.017-0.7 0.05l0.9-0.449c0.367-0.2 0.917-0.384 1.65-0.551 0.761-0.198 1.311-0.364 1.65-0.5-0.176 0.074-0.559 0.34-1.15 0.8zm15.3-4.4c0.233-0.134 0.533-0.4 0.899-0.8 0.233-0.233 0.45-0.417 0.65-0.55l-4.85 2.9c-0.233 0.033-0.617 0.2-1.15 0.5-0.5 0.3-0.817 0.55-0.95 0.75 0.2-0.1 0.483-0.2 0.85-0.3 0.4-0.1 0.7-0.2 0.9-0.3 0.167-0.066 0.733-0.417 1.7-1.05l1.951-1.15zm-2.8-9.8h0.05c-0.033-0.067-0.05-0.117-0.05-0.15l-0.05 0.05c0-0.1 0.034-0.2 0.101-0.3 0.033-0.033 0.083-0.083 0.149-0.15h-0.1c-0.066 0.033-0.134 0.083-0.2 0.15-0.233 0.133-0.316 0.3-0.25 0.5 0.2 0 0.517 0.067 0.95 0.2h0.675c-0.2-0.004-0.358-0.021-0.475-0.05-0.467-0.067-0.733-0.15-0.8-0.25zm-13 8.8l0.75 0.85 0.35 0.3c-0.467-0.233-1.5-0.934-3.1-2.101-0.867-0.633-1.417-1.383-1.65-2.25-0.033-0.132-0.15-0.482-0.35-1.049l1.65 1.6c0.067 0.333 0.217 0.633 0.45 0.9l1.9 1.75zm-3.65 6.4c-0.5 0.4-0.817 0.65-0.95 0.75h-0.05v-0.5h0.05c0.433-0.067 0.75-0.15 0.95-0.25z" fill="#7E6B44"/>
	<path d="m30.8 5.55v0.25c-0.033-0.066-0.066-0.117-0.1-0.15v-0.05l0.1-0.1v0.05zm3.5 12.65c-0.3 0.333-0.934 1.05-1.899 2.149 0-0.833 0.05-1.333 0.149-1.5 0.066-0.066 0.217-0.149 0.45-0.25 0.233-0.1 0.4-0.199 0.5-0.3 0.4-0.434 0.75-1.017 1.05-1.75l0.25-0.7v-0.149c0.033 0.399 0.033 0.75 0 1.05-0.033 0.634-0.184 1.116-0.45 1.45h-0.05zm-3.7 3.8l-0.175 0.175-0.025 0.025-0.6 0.5c-0.333 0.434-0.866 0.833-1.6 1.2-0.634 0.3-1.117 0.466-1.45 0.5-0.134 0.066-0.3 0.1-0.5 0.1l-0.05-0.55h0.05c0.267 0.066 0.483 0.066 0.65 0 0.267-0.033 0.683-0.3 1.25-0.8 0.3-0.267 0.716-0.534 1.25-0.801 0.533-0.233 0.933-0.416 1.199-0.55 0.001 0.067 0.001 0.135 0.001 0.201zm2.3-7.35c0.033-0.067 0.183-0.233 0.449-0.5h0.051l0.75 0.149c-0.567 1.134-0.983 1.384-1.25 0.75-0.067-0.099-0.067-0.233 0-0.399z" fill="#685837"/>
	<path d="m30.8 5.8v-0.25c0.134-0.066 0.267-0.15 0.4-0.25l-0.35 0.6c-0.034-0.033-0.05-0.067-0.05-0.1zm0.95 12.4l0.05 0.25c0 0.366 0.05 0.7 0.15 1 0.066-0.434 0.083-1.017 0.05-1.75-0.033-0.8-0.05-1.384-0.05-1.75v-1.95c0.366-0.5 0.533-0.833 0.5-1-0.066-0.233-0.283-0.417-0.65-0.55l-0.149-0.3v0.1l-0.2-1.5c-0.066-0.967-0.066-2.45 0-4.45-0.167 0.567-0.267 1-0.3 1.3v-0.2c0.1-0.967 0.149-1.683 0.149-2.15 0.767-0.5 1.834-1.167 3.2-2 0.1 0.1 0.184 0.2 0.25 0.3h-0.05c0.033 0.367-0.134 0.65-0.5 0.85-0.2 0.1-0.517 0.25-0.95 0.45-0.3 0.2-0.417 0.533-0.35 1 0.3 0.1 0.649 0.117 1.05 0.05 0.133-0.033 0.283-0.167 0.45-0.4l0.6-0.75c0.021 0.593 0.021 1.476 0 2.65-0.167 0.567-0.417 1.033-0.75 1.4-0.4 0.467-0.616 0.75-0.65 0.85-0.033 0.133-0.083 0.467-0.149 1-0.066 0.434-0.167 0.75-0.3 0.95-0.034 0.066-0.184 0.167-0.45 0.3-0.233 0.1-0.351 0.2-0.351 0.3 0 0.133 0.15 0.3 0.45 0.5 0.066 0.066 0.117 0.183 0.15 0.35 0.133 0.134 0.366 0.217 0.7 0.25l0.3 0.15-0.5 0.6-0.1 0.1c-0.267 0.267-0.416 0.433-0.449 0.5-0.301 0.366-0.434 0.633-0.4 0.8 0.3 0.066 0.783 0.083 1.45 0.05 0.033 0.467-0.134 0.934-0.5 1.4-0.267 0.399-0.65 0.616-1.15 0.649 0 0.267 0.017 0.684 0.05 1.25 0 0.5-0.083 0.884-0.25 1.15l-0.25 0.3-0.101-2.049zm-5.7-5.25l-0.15-2.45 0.05-0.05-0.101-1.4-0.05-0.4 0.15-0.1c0.066-0.033 0.133-0.066 0.2-0.1 1.3-0.633 2.433-1.3 3.399-2 0.134 0.167 0.233 0.333 0.3 0.5 0.2 0.466 0.351 3.216 0.45 8.25 0.134 1.434 0.233 3.1 0.3 5-0.166-0.066-0.3-0.066-0.399 0-0.101 0.1-0.3 0.333-0.601 0.7-0.233 0.3-0.633 0.633-1.199 1-0.634 0.366-1.051 0.666-1.25 0.899-0.2 0.3-0.483 0.517-0.851 0.65h-0.05c-0.033-0.4-0.05-0.9-0.05-1.5 0.399 0.166 0.7 0.2 0.899 0.1l1.2-1.8c0.233-0.2 0.384-0.35 0.45-0.45 0.167-0.166 0.184-0.316 0.05-0.45-0.033-0.033-0.25-0.133-0.649-0.3-0.7-0.399-1.351-0.899-1.95-1.5v-0.8-0.85l-0.098-2.949h-0.05zm4.6 9.05c-0.088 0.059-0.163 0.117-0.226 0.175l0.176-0.175h0.05zm-1.15-10.15c-0.267 0.333-0.6 0.617-1 0.85-0.333 0.267-0.583 0.434-0.75 0.5l-0.4 0.149c-0.066 0.134-0.033 0.301 0.101 0.5 0.066 0.134 0.166 0.301 0.3 0.5 0.066 0.134 0.134 0.367 0.2 0.7 0.1 0.267 0.217 0.434 0.35 0.5 0.533 0.2 0.95-0.1 1.25-0.899 0.267-0.934 0.434-1.517 0.5-1.75l-0.1-1.75c-0.034 0.067-0.184 0.3-0.451 0.7zm2.9 8.5c0.966-1.1 1.6-1.816 1.899-2.149-0.233 0.3-0.7 0.85-1.399 1.649l-0.5 0.5z" fill="#917B4E"/>
	<path d="m19.95 2.9c0.5 0.067 1 0.15 1.5 0.25 4.633 0.633 7.166 1.017 7.6 1.15s0.834 0.383 1.2 0.75c0.033 0.034 0.066 0.067 0.1 0.1 0.133 0.133 0.25 0.283 0.35 0.45v0.05c0.033 0.033 0.066 0.083 0.1 0.15 0 0.034 0.017 0.067 0.05 0.1 0.134 0.333 0.2 0.684 0.2 1.05 0 1.066 0.117 4.233 0.351 9.5 0 1.5 0.083 2.916 0.25 4.25 0.033 0.1 0.05 0.217 0.05 0.35 0.066 0.601-0.117 0.9-0.55 0.9v-0.351-0.05c-0.134-2.533-0.301-4.733-0.5-6.6-0.034-0.4-0.084-1.017-0.15-1.851-0.066-0.866-0.134-1.966-0.2-3.3-0.133-1.9-0.267-2.983-0.399-3.25-0.034-0.1-0.084-0.183-0.15-0.25-0.167-0.233-0.4-0.433-0.7-0.6-0.366-0.267-0.85-0.483-1.45-0.65-0.566-0.167-1.25-0.3-2.05-0.4l-6.752-0.848c-0.2-0.133-0.3-0.283-0.3-0.45 0.033-0.1 0.083-0.184 0.15-0.25 0.166-0.1 0.317-0.2 0.45-0.3 0.266 0.033 0.55 0.067 0.85 0.1zm-7.35 20.35c-0.167 0.267-0.4 0.4-0.7 0.4s-0.55-0.15-0.75-0.45c-0.1-0.134-0.183-0.283-0.25-0.45-0.066-0.167-0.1-0.35-0.1-0.55v-0.5c-0.033-0.4-0.066-0.816-0.1-1.25v-0.4c-0.034-0.434-0.05-0.883-0.05-1.35v-0.8-2.801c0-1.333 0.017-2.5 0.05-3.5 0-2.434 0.033-3.817 0.1-4.15v-0.049c0.034-0.167 0.15-0.333 0.35-0.5 0.067-0.033 0.117-0.05 0.15-0.05 0.066-0.066 0.116-0.099 0.15-0.1 0.1-0.067 0.167-0.133 0.2-0.2 0.333-0.333 0.733-0.683 1.2-1.05 0.533-0.467 1.183-0.967 1.95-1.5 0.1-0.1 0.217-0.183 0.35-0.25 0.133-0.133 0.283-0.25 0.45-0.35l-10.3-1.3-0.15-0.05c0-0.133 0.033-0.267 0.1-0.4 0.167-0.267 0.5-0.383 1-0.35l0.45 0.05 0.6 0.1 2.25 0.25 5.4 0.6 1.95 0.25c0.767-0.5 1.433-0.9 2-1.2 0.267-0.167 0.517-0.283 0.75-0.35 0.3-0.133 0.55-0.233 0.75-0.3 0.6-0.133 0.966-0.05 1.1 0.25 0.033 0.066 0.066 0.15 0.1 0.25-0.033 0.066-0.05 0.133-0.05 0.2h-0.05c-0.233-0.1-0.583-0.05-1.05 0.15-0.3 0.133-0.667 0.333-1.101 0.6-0.433 0.267-1 0.633-1.699 1.1-0.434 0.267-0.917 0.583-1.45 0.95-0.034 0-0.05 0.017-0.05 0.05-0.233 0.133-0.483 0.317-0.75 0.55-0.4 0.3-0.883 0.7-1.45 1.2-0.034 0.033-0.067 0.067-0.1 0.1-0.434 0.367-0.767 0.683-1 0.95-0.333 0.267-0.55 0.467-0.65 0.6 0 0.033-0.017 0.083-0.05 0.15-0.066 0.3-0.1 1-0.1 2.1 0.034 0.867 0.05 1.55 0.05 2.05-0.033 0.466-0.05 0.75-0.05 0.85v2.25c-0.033 0.566-0.033 1.267 0 2.101-0.033 0.133-0.033 0.267 0 0.399-0.033 0.101-0.033 0.217 0 0.351-0.033 0.1-0.033 0.199 0 0.3v0.55 1.45 0.45 0.3 0.35 0.5 0.351c0 0.399 0.117 0.666 0.35 0.8 0.067 0.066 0.15 0.1 0.25 0.1-0.033 0.064-0.05 0.132-0.05 0.198zm5.3-19.55l-0.05-0.1 0.05-0.05c0 0.034 0.017 0.083 0.05 0.15h-0.05z" fill="#DCC99A"/>
	<path d="m34.75 3.55l0.05 0.1c0.066 0.133 0.117 0.267 0.15 0.4l0.05 0.7-0.6 0.75c-0.167 0.233-0.317 0.367-0.45 0.4-0.4 0.067-0.75 0.05-1.05-0.05-0.067-0.467 0.05-0.8 0.35-1 0.434-0.2 0.75-0.35 0.95-0.45 0.366-0.2 0.533-0.483 0.5-0.85h0.05zm0.25 3.85l-0.2 5.6c-0.399 0.333-0.649 0.483-0.75 0.45h-0.1l-0.3-0.15c-0.334-0.033-0.567-0.116-0.7-0.25-0.033-0.167-0.084-0.283-0.15-0.35-0.3-0.2-0.45-0.367-0.45-0.5 0-0.1 0.117-0.2 0.351-0.3 0.267-0.133 0.416-0.233 0.45-0.3 0.133-0.2 0.233-0.517 0.3-0.95 0.066-0.533 0.116-0.867 0.149-1 0.034-0.1 0.25-0.383 0.65-0.85 0.333-0.367 0.583-0.833 0.75-1.4zm-3.05 6.6l-0.05 0.05c-0.034-0.166-0.067-0.3-0.101-0.399l-0.149-1.4v-0.1l0.149 0.3c0.367 0.133 0.584 0.316 0.65 0.55 0.034 0.166-0.133 0.499-0.499 0.999zm-2.45-2.15c0.267-0.4 0.417-0.633 0.45-0.7l0.1 1.75c-0.066 0.234-0.233 0.817-0.5 1.75-0.3 0.8-0.717 1.1-1.25 0.899-0.133-0.066-0.25-0.233-0.35-0.5-0.066-0.333-0.134-0.566-0.2-0.7-0.134-0.199-0.233-0.366-0.3-0.5-0.134-0.199-0.167-0.366-0.101-0.5l0.4-0.149c0.167-0.066 0.417-0.233 0.75-0.5 0.401-0.233 0.734-0.517 1.001-0.85zm-3.3 10.1v-2.3-1.775-0.325c0.6 0.601 1.25 1.101 1.95 1.5 0.399 0.167 0.616 0.267 0.649 0.3 0.134 0.134 0.117 0.284-0.05 0.45-0.066 0.101-0.217 0.25-0.45 0.45l-1.2 1.8c-0.199 0.1-0.499 0.066-0.899-0.1z" fill="#847148"/>
	<path d="m31.95 14v1.95c0 0.366 0.017 0.95 0.05 1.75 0.033 0.733 0.017 1.316-0.05 1.75-0.101-0.3-0.15-0.634-0.15-1l-0.05-0.25-0.1-0.601-0.5-9.85v-0.15c0.033-0.3 0.133-0.733 0.3-1.3-0.066 2-0.066 3.483 0 4.45l0.2 1.5 0.149 1.4c0.033 0.1 0.066 0.233 0.101 0.399l0.05-0.048z" fill="#A28A5B"/>
	<path d="m18.05 8.35c-0.8-0.2-1.417-0.3-1.85-0.3h-1.8c-0.7-0.033-1.35-0.1-1.95-0.2 0-0.067 0.017-0.117 0.05-0.15 0.1-0.133 0.317-0.333 0.65-0.6l3.2 0.45 1.1 0.15c0.6 0.066 1.517 0.2 2.75 0.4 0.333 0.033 0.85 0.033 1.55 0l0.65 0.1h1.1l2.45 0.35-0.15 0.1v0.1c-1.1 0.067-2.033 0.05-2.8-0.05-0.366-0.067-0.9-0.1-1.6-0.1l-1.85-0.05c-0.333 0-0.833-0.067-1.5-0.2zm-7.3-7.4l-0.95 0.4c-0.233 0.1-0.317 0.217-0.25 0.35l-2.25-0.25c0.233-0.133 0.517-0.3 0.85-0.5 0.4-0.3 0.767-0.483 1.1-0.55 0.7-0.066 1.15-0.167 1.35-0.3l3.65 0.3-1.45 0.05h-0.1c-0.133 0.033-0.417 0.05-0.85 0.05l-0.45 0.1-0.25 0.2-0.4 0.15zm0.05 6.5c-1.567-0.4-2.417-0.617-2.55-0.65l-0.85-0.1-3.5-0.1-0.35-0.05c-0.067 0-0.35 0.05-0.85 0.15l-1.2-0.3c-0.533-0.1-1-0.083-1.4 0.05-0.033-0.033-0.067-0.05-0.1-0.05 0-0.314 0.025-0.556 0.075-0.725 0.007-0.026 0.015-0.051 0.025-0.075v-0.05c0.1 0.033 0.4 0.05 0.9 0.05l0.15 0.05v-0.05c-0.067-0.433 0.45-0.717 1.55-0.85 0.333-0.033 0.7-0.2 1.1-0.5 0.434-0.367 0.75-0.633 0.95-0.8 0.3-0.233 0.683-0.534 1.15-0.9l2.6 0.35h0.05c0.041 0.015 0.074 0.049 0.1 0.1 0.067 0.2-0.033 0.333-0.3 0.4-0.433 0.133-0.75 0.25-0.95 0.35-0.9 0.567-1.583 0.917-2.05 1.05l-0.75 0.15c-0.2 0-0.467 0.05-0.8 0.15-0.4 0.1-0.567 0.2-0.5 0.3 0.034 0.067 0.25 0.1 0.65 0.1l0.45 0.1c0.233 0.133 0.467 0.2 0.7 0.2l1.3 0.2 0.2 0.05c0.093 0.012 0.193 0.029 0.3 0.05l3.4 0.55c0.267 0.033 0.55 0.083 0.85 0.15l0.15 0.05c-0.033 0-0.083 0.017-0.15 0.05-0.2 0.167-0.316 0.333-0.35 0.5v0.05z" fill="#D4BB87"/>
	<path d="m12.6 18.7h0.05c0.434-0.066 0.717-0.15 0.85-0.25 0.233-0.267 0.433-0.45 0.6-0.55 0.233-0.134 0.566-0.15 1-0.051 0.433 0.101 0.733 0.25 0.9 0.45l0.65 0.4c0.167 0.033 0.383 0.116 0.65 0.25 0.167 0.1 0.384 0.233 0.65 0.399 0.5 0.2 0.816 0.367 0.95 0.5 0.267 0.233 0.267 0.517 0 0.851-0.301 0.333-1.334 0.366-3.101 0.1l-0.05-0.75c-0.5-0.066-1.233-0.05-2.2 0.05-0.333 0.034-0.617 0.051-0.85 0.051-0.032-0.433-0.066-0.917-0.099-1.45zm-0.2-6.75c0.133 0 0.283-0.017 0.45-0.05 0.433-0.066 1.066-0.217 1.9-0.45l0.75 0.75c0.033 0.2-0.017 0.517-0.15 0.95-0.467 0.1-1.067 0.416-1.8 0.949-0.4 0.301-0.767 0.551-1.1 0.75-0.034-1.066-0.034-1.75 0-2.05-0.033-0.299-0.05-0.582-0.05-0.849zm-8.5-5.35l3.5 0.1-0.75 1.05c-0.167 0.233-0.283 0.35-0.35 0.35-0.033 0.033-0.167 0.033-0.4 0-0.867-0.1-1.533-0.6-2-1.5zm6.75 8.5c-0.2-0.066-0.367-0.166-0.5-0.3l-1.2-1.149c0.066-0.034 0.267-0.117 0.6-0.25 0.3-0.134 0.5-0.284 0.6-0.45-0.633-0.001-1.35-0.251-2.15-0.751-0.833-0.534-1.283-1-1.35-1.4 1.067-0.167 2.417 0.1 4.05 0.8-0.033 1-0.05 2.167-0.05 3.5zm0.05 4.95c-0.467-0.066-0.934-0.166-1.4-0.3-0.566-0.233-0.983-0.384-1.25-0.45-0.333-0.033-0.583-0.066-0.75-0.1-0.3-0.033-0.533-0.117-0.7-0.25 0.7-0.267 1.7-0.367 3-0.3 0.4 0 0.75 0.017 1.05 0.05 0 0.467 0.017 0.916 0.05 1.35zm7.35-11.7c0.667 0.133 1.167 0.2 1.5 0.2l1.85 0.05-0.45 0.4c-0.134 0.133-0.434 0.417-0.9 0.85-0.399 0.4-0.717 0.633-0.95 0.7-0.166 0.067-0.383 0.117-0.649 0.15h-0.7c-0.4 0-0.634-0.017-0.7-0.05s-0.033-0.183 0.101-0.45c0.433-0.767 0.733-1.35 0.899-1.75v-0.1zm8.15 9.2v0.325 1.775c-0.3 0-0.5-0.034-0.601-0.101-0.133-0.033-0.3-0.184-0.5-0.45-0.166-0.267-0.233-0.483-0.199-0.649 0-0.233 0.166-0.417 0.5-0.55 0.366-0.2 0.566-0.4 0.6-0.601 0.066-0.333-0.184-0.616-0.75-0.85-0.434-0.2-0.816-0.117-1.15 0.25-0.333 0.434-0.649 0.6-0.949 0.5-0.233-0.066-0.717-0.3-1.45-0.7-0.601-0.333-1.117-0.533-1.55-0.6 0.199-0.267 0.683-0.45 1.449-0.551 0.9-0.1 1.467-0.216 1.7-0.35 0.533-0.267 0.851-0.45 0.95-0.55 0.066-0.033 0.35-0.334 0.85-0.9 0.334-0.333 0.65-0.533 0.95-0.6h0.05l0.1 2.952v0.85 0.8zm-9.55-6l1 0.15c0 0.4-0.084 0.7-0.25 0.9-0.2 0.267-0.484 0.283-0.851 0.05-0.167-0.1-0.25-0.283-0.25-0.55 0.001-0.3 0.118-0.483 0.351-0.55zm-11.3 2.65c0.467 0.267 0.85 0.434 1.15 0.5l0.25 0.85c-0.133 0-0.35 0.066-0.65 0.2-0.333 0.167-0.567 0.267-0.7 0.3h-0.85l-0.05-0.35c-0.633-0.101-1.217 0-1.75 0.3-0.3 0.167-0.633 0.434-1 0.8-0.267 0.334-0.5 0.5-0.7 0.5-0.267 0-0.517-0.083-0.75-0.25l-0.05-2.7c0.3 0.267 0.683 0.434 1.15 0.5 0.533 0.101 0.9 0.034 1.1-0.199 0.167-0.167 0.217-0.467 0.15-0.9-0.133-0.534-0.183-0.851-0.15-0.951 0.233-0.033 0.533 0.05 0.9 0.25 0.233 0.101 0.533 0.267 0.9 0.5 0.233 0.134 0.583 0.35 1.05 0.65z" fill="#A68E59"/>
	<path d="m12.75 21.5c-0.033-0.333-0.05-0.783-0.05-1.35 0.233 0 0.517-0.017 0.85-0.051 0.967-0.1 1.7-0.116 2.2-0.05l0.05 0.75c1.767 0.267 2.8 0.233 3.101-0.1 0.267-0.334 0.267-0.617 0-0.851-0.134-0.133-0.45-0.3-0.95-0.5-0.267-0.166-0.483-0.3-0.65-0.399-0.267-0.134-0.483-0.217-0.65-0.25l-0.651-0.399c-0.167-0.2-0.467-0.35-0.9-0.45-0.434-0.1-0.767-0.083-1 0.051-0.167 0.1-0.367 0.283-0.6 0.55-0.133 0.1-0.417 0.184-0.85 0.25h-0.05v-0.5c0.467 0 0.85-0.084 1.15-0.25 0.367-0.167 0.833-0.3 1.4-0.4l1.5-0.25-2.4-0.35 0.5 0.05h0.1l0.3-0.1-0.65-0.051 0.9 0.051c0.5 0 0.967 0.05 1.4 0.149 0.267 0.066 1 0.467 2.2 1.2l1.8 1.05h-0.15l0.8 0.5 0.1 0.05c-0.033 0.2 0.05 0.4 0.25 0.601 0.101 0.1 0.25 0.25 0.45 0.45 0.233 0.3 0.316 0.716 0.25 1.25-0.566 0.267-1.3 0.283-2.2 0.05-0.967-0.3-1.684-0.483-2.149-0.55-0.534-0.067-2.167-0.101-4.9-0.101l-0.501-0.05zm1.2-4.3c-0.233 0.133-0.7 0.316-1.4 0.55v-0.2c0.233-0.066 0.5-0.166 0.8-0.3l0.6-0.05zm-1.4-0.2c-0.033-0.833-0.066-1.55-0.1-2.15 0.333-0.199 0.7-0.449 1.1-0.75 0.733-0.533 1.333-0.85 1.8-0.949 0.133-0.434 0.183-0.75 0.15-0.95l-0.75-0.75c-0.833 0.233-1.467 0.383-1.9 0.45-0.167 0.033-0.317 0.05-0.45 0.05-0.133-2.3-0.117-3.667 0.05-4.1 0.6 0.1 1.25 0.167 1.95 0.2h1.8c0.433 0 1.05 0.1 1.85 0.3v0.1c-0.166 0.4-0.467 0.983-0.899 1.75-0.134 0.267-0.167 0.417-0.101 0.45s0.3 0.05 0.7 0.05h0.7c0.267-0.034 0.483-0.083 0.649-0.15 0.233-0.066 0.551-0.3 0.95-0.7 0.467-0.434 0.767-0.717 0.9-0.85l0.45-0.4c0.699 0 1.233 0.033 1.6 0.1 0.767 0.1 1.7 0.117 2.8 0.05v-0.1l0.05 0.4-0.049-0.251c-0.1 0.167-0.483 0.567-1.149 1.2l-0.4 0.5c-0.2 0.2-0.5 0.417-0.9 0.65-0.267 0.167-0.666 0.434-1.199 0.8l1.75-0.75-3.65 1.7c-0.2 0.133-0.7 0.466-1.5 1l-0.35 0.25c-0.334 0.199-0.851 0.483-1.55 0.85-0.7 0.434-1.233 0.717-1.6 0.85l-2.702 1.15zm13.65 6.35v-0.65l-1.95-1.75c-0.134-0.134-0.667-0.584-1.6-1.351-0.4-0.399-0.717-0.666-0.95-0.8l-3-2.35-0.05-0.05c0-0.034-0.017-0.067-0.051-0.101-0.199-0.333-0.267-0.616-0.199-0.85l0.05-0.2v0.2l4.399-2.5c0.334-0.167 0.617-0.367 0.851-0.6l0.6-0.55c0.667-0.667 1.101-1.05 1.3-1.15l0.3-0.148 0.149 2.45c-0.3 0.066-0.616 0.267-0.95 0.6-0.5 0.566-0.783 0.867-0.85 0.9-0.1 0.1-0.417 0.283-0.95 0.55-0.233 0.134-0.8 0.25-1.7 0.35-0.767 0.101-1.25 0.284-1.449 0.551 0.433 0.066 0.949 0.267 1.55 0.6 0.733 0.4 1.217 0.634 1.45 0.7 0.3 0.1 0.616-0.066 0.949-0.5 0.334-0.367 0.717-0.45 1.15-0.25 0.566 0.233 0.816 0.517 0.75 0.85-0.033 0.2-0.233 0.4-0.6 0.601-0.334 0.133-0.5 0.316-0.5 0.55-0.034 0.166 0.033 0.383 0.199 0.649 0.2 0.267 0.367 0.417 0.5 0.45 0.102 0.065 0.302 0.099 0.602 0.099v2.3c0 0.6 0.017 1.1 0.05 1.5h-0.05v-0.1zm-15.5-11.75c-1.633-0.7-2.983-0.967-4.05-0.8 0.067 0.4 0.517 0.867 1.35 1.4 0.8 0.5 1.517 0.75 2.15 0.75-0.1 0.166-0.3 0.316-0.6 0.45-0.333 0.133-0.533 0.216-0.6 0.25l1.2 1.149c0.133 0.134 0.3 0.233 0.5 0.3v2.801 0.8c-0.3-0.033-0.65-0.05-1.05-0.05-1.3-0.067-2.3 0.033-3 0.3 0.167 0.133 0.4 0.217 0.7 0.25 0.167 0.033 0.417 0.066 0.75 0.1 0.267 0.066 0.684 0.217 1.25 0.45 0.467 0.134 0.934 0.233 1.4 0.3v0.4h-0.05c-0.7-0.066-1.283-0.2-1.75-0.4-0.233-0.1-0.617-0.15-1.15-0.15l-0.5 0.149-0.3 0.2-0.2 0.1-0.5-0.1c-0.767-0.033-1.35-0.066-1.75-0.1-0.933-0.099-1.467-0.249-1.6-0.449l-0.15-0.3c0.2 0 0.75-0.15 1.65-0.45 0.233-0.066 0.75-0.3 1.55-0.7 0.333-0.1 0.733-0.3 1.2-0.6 0.867-0.3 1.483-0.584 1.85-0.85l-0.6-0.25 0.25-0.05h0.9c0.367 0.233 0.567 0.333 0.6 0.3-0.133-0.233-0.35-0.434-0.65-0.6-0.267-0.167-0.667-0.467-1.2-0.9-1.033-0.7-1.8-1.25-2.3-1.65l-0.35-0.3-0.75-0.85c-0.433-0.567-0.8-1.033-1.1-1.4l1.45 1.4c0.267 0.267 0.617 0.7 1.05 1.3 0.167 0.2 0.517 0.417 1.05 0.65l0.7 0.45c0.367 0.267 0.617 0.416 0.75 0.449 0-0.066-0.216-0.366-0.65-0.899l-1.35-1.15c-0.6-0.566-1.367-1.483-2.3-2.75-0.5-0.8-0.9-1.383-1.2-1.75l-0.6-0.65c-0.2-0.333-0.383-0.566-0.55-0.7-0.533-0.467-0.9-0.733-1.1-0.8-0.433-0.067-0.75-0.133-0.95-0.2 0.4-0.133 0.867-0.15 1.4-0.05l1.2 0.3c0.5-0.1 0.783-0.15 0.85-0.15l0.35 0.05c0.467 0.9 1.133 1.4 2 1.5 0.233 0.033 0.367 0.033 0.4 0 0.067 0 0.184-0.117 0.35-0.35l0.75-1.05 0.85 0.1c0.133 0.034 0.983 0.25 2.55 0.65-0.067 0.333-0.1 1.717-0.1 4.15zm-10.65-4.6c-0.033-0.133-0.05-0.267-0.05-0.4-0.03-0.362-0.005-0.67 0.075-0.925-0.05 0.169-0.075 0.411-0.075 0.725v0.1l0.05 0.5zm16.6 4.55c-0.233 0.067-0.35 0.25-0.35 0.55 0 0.267 0.083 0.45 0.25 0.55 0.367 0.233 0.65 0.217 0.851-0.05 0.166-0.2 0.25-0.5 0.25-0.9l-1.001-0.15zm-16.35 7.6l-0.1-7.8-0.05-3.75 0.1 3.1-0.05 0.65c0.2 0.033 0.367 0.033 0.5 0 0.066 0 0.233-0.067 0.5-0.2 0.2-0.1 0.383-0.133 0.55-0.1 0.2 0.034 0.5 0.184 0.9 0.45 1.367 0.833 2.6 1.733 3.7 2.7 0.4 0.333 1.033 0.783 1.9 1.35l0.1 0.05c-0.333 0.233-0.8 0.567-1.4 1-0.933 0.266-1.617 0.466-2.05 0.6-0.933 0.233-1.65 0.483-2.15 0.75l-1.25 0.8-0.25 0.15c-0.2 0.1-0.517 0.183-0.95 0.25zm7.1-2.2c-1.133 0.767-2.017 1.3-2.65 1.6l-0.95 0.35 1.6-1 0.5-0.2c0.233-0.134 0.6-0.351 1.1-0.65l0.4-0.1zm-2.05-2.75c-0.467-0.3-0.817-0.517-1.05-0.65-0.367-0.233-0.667-0.399-0.9-0.5-0.367-0.2-0.667-0.283-0.9-0.25-0.033 0.1 0.017 0.417 0.15 0.95 0.067 0.434 0.017 0.733-0.15 0.9-0.2 0.233-0.567 0.3-1.1 0.199-0.467-0.066-0.85-0.233-1.15-0.5l0.05 2.7c0.233 0.167 0.483 0.25 0.75 0.25 0.2 0 0.434-0.166 0.7-0.5 0.367-0.366 0.7-0.633 1-0.8 0.533-0.3 1.117-0.4 1.75-0.3l0.05 0.35h0.85c0.133-0.033 0.367-0.133 0.7-0.3 0.3-0.134 0.517-0.2 0.65-0.2l-0.25-0.849c-0.3-0.066-0.683-0.233-1.15-0.5zm-3.1 5.05l1.3-0.3-0.8 0.399v-0.199l-0.5 0.1z" fill="#B0965F"/>
	<path d="m14.25 16.95l-0.3 0.25-0.6 0.05 0.35-0.25 0.7-0.15 0.1-0.05c0.333-0.066 0.833-0.283 1.5-0.649 0.467-0.2 0.983-0.15 1.55 0.149 0.3 0.2 0.783 0.483 1.45 0.851-0.033-0.134-0.15-0.384-0.35-0.75l0.05 0.05 3 2.35c0.233 0.134 0.55 0.4 0.95 0.8 0.933 0.767 1.466 1.217 1.6 1.351l1.95 1.75v0.649l-0.05-0.05-4.05-3.451c-0.533-0.399-0.966-0.583-1.3-0.55l-1.8-1.05c-1.2-0.733-1.934-1.134-2.2-1.2-0.433-0.1-0.9-0.149-1.4-0.149l-0.9-0.051 0.65 0.051-0.3 0.1h-0.1l-0.5-0.051zm-1.5 4.55l0.5 0.05c2.733 0 4.366 0.033 4.9 0.101 0.466 0.066 1.183 0.25 2.149 0.55 0.9 0.233 1.634 0.217 2.2-0.05 0.066-0.534-0.017-0.95-0.25-1.25-0.2-0.2-0.35-0.351-0.45-0.45-0.2-0.2-0.283-0.4-0.25-0.601 0.467 0.301 1 0.717 1.601 1.25l0.699 0.75c0.534 0.534 0.75 1.101 0.65 1.7-0.267 0.134-0.85 0.117-1.75-0.05l-1.85-0.35c-0.834-0.034-1.467-0.067-1.9-0.101-0.3-0.033-0.684-0.116-1.15-0.25-0.6-0.2-1-0.316-1.2-0.35-0.833-0.2-2.133-0.384-3.9-0.55v-0.049c0.001-0.1 0.001-0.216 0.001-0.35zm13.1-12.45l0.101 1.4-0.051 0.05-0.3 0.15c-0.199 0.1-0.633 0.483-1.3 1.15l-0.6 0.55c-0.233 0.233-0.517 0.433-0.851 0.6l-4.399 2.5v-0.2c0.166-0.333 0.684-0.634 1.55-0.9 0.4-0.133 0.9-0.466 1.5-1 1.333-1.167 2.134-1.883 2.4-2.149l-1.75 0.75c0.533-0.367 0.933-0.633 1.199-0.8 0.4-0.233 0.7-0.45 0.9-0.65l0.4-0.5c0.666-0.633 1.05-1.033 1.149-1.2l0.052 0.249zm-13.3 7.95l2.7-1.15c0.367-0.133 0.9-0.416 1.6-0.85 0.7-0.366 1.216-0.65 1.55-0.85l0.35-0.25-0.45 0.35-4.35 2.5 0.05-0.05-0.75 0.35-0.7 0.101v-0.151zm-9.8 2.4l0.15 0.3c0.133 0.2 0.667 0.35 1.6 0.45 0.4 0.033 0.983 0.066 1.75 0.1l0.5 0.1 0.2-0.1 0.3-0.2 0.5-0.149c0.533 0 0.917 0.05 1.15 0.149 0.467 0.2 1.05 0.334 1.75 0.4h0.05c0.033 0.434 0.066 0.85 0.1 1.25-1-0.101-2.1-0.2-3.3-0.3l-3.65-0.35c-0.767 0-1.417-0.033-1.95-0.1-1-0.134-1.35-0.434-1.05-0.9 0.1-0.166 0.316-0.316 0.65-0.45 0.167-0.1 0.417-0.216 0.75-0.35l0.5-0.1v0.199l-0.1 0.051h0.1zm-2.6-11.9l0.75 0.75c0.2 0.567 0.317 0.917 0.35 1.05 0.233 0.867 0.783 1.617 1.65 2.25 1.6 1.167 2.633 1.867 3.1 2.101 0.5 0.399 1.267 0.949 2.3 1.649 0.534 0.434 0.934 0.733 1.2 0.9 0.3 0.166 0.517 0.366 0.65 0.6-0.033 0.033-0.233-0.066-0.6-0.3h-0.9l-0.25 0.05c-0.467 0.134-0.8 0.267-1 0.4l-0.4 0.1c-0.5 0.3-0.867 0.517-1.1 0.65l-0.5 0.2c0.591-0.46 0.974-0.727 1.15-0.801-0.339 0.136-0.889 0.302-1.65 0.5-0.733 0.167-1.283 0.351-1.65 0.551l-0.9 0.45-0.7 0.1-0.15 0.05 1.25-0.8c0.5-0.267 1.217-0.517 2.15-0.75 0.434-0.134 1.117-0.334 2.05-0.601 0.6-0.433 1.066-0.767 1.4-1l-0.1-0.05c-0.867-0.566-1.5-1.017-1.9-1.35-1.1-0.967-2.333-1.867-3.7-2.7-0.4-0.267-0.7-0.417-0.9-0.45-0.167-0.033-0.35 0-0.55 0.1-0.267 0.133-0.434 0.2-0.5 0.2-0.133 0.033-0.3 0.033-0.5 0l0.05-0.65-0.1-3.1v-0.099z" fill="#9D8655"/>
	<path d="m23.85 21.85l-0.7-0.75-0.25-0.4c0.133 0.2 0.6 0.6 1.399 1.2 0.3 0.233 0.617 0.583 0.95 1.05 0.167 0.233 0.483 0.517 0.95 0.85v0.15l-2.349-2.1zm-3.15-8.35l-1.95 1.15c-0.967 0.633-1.533 0.983-1.7 1.05-0.2 0.1-0.5 0.2-0.9 0.3-0.367 0.1-0.65 0.2-0.85 0.3 0.133-0.2 0.45-0.45 0.95-0.75 0.533-0.3 0.917-0.467 1.15-0.5l4.85-2.9c-0.2 0.133-0.417 0.317-0.65 0.55-0.367 0.4-0.666 0.666-0.9 0.8zm-19.45 5.4l0.25-0.15 0.15-0.05 0.7-0.101c0.167-0.033 0.4-0.05 0.7-0.05-0.4 0.033-0.833 0.167-1.3 0.4-0.233 0.134-0.717 0.451-1.45 0.951h-0.05v-0.25h0.05c0.133-0.1 0.45-0.35 0.95-0.75zm2.55-7.8c0.3 0.367 0.667 0.833 1.1 1.4l-1.9-1.75c-0.233-0.267-0.383-0.567-0.45-0.9l1.25 1.25z" fill="#5E5032"/>
	<path d="m17.85 3.6l0.05 0.1c0.066 0.1 0.333 0.183 0.8 0.25 0.116 0.029 0.274 0.045 0.475 0.05h-0.675c-0.434-0.133-0.75-0.2-0.95-0.2-0.066-0.2 0.017-0.367 0.25-0.5 0.066-0.066 0.134-0.117 0.2-0.15h0.1c-0.066 0.067-0.116 0.117-0.149 0.15-0.067 0.1-0.101 0.2-0.101 0.3z" fill="#5C4E31"/>
	<path d="m6.7 1.35c0.333-0.233 0.683-0.434 1.05-0.6 0.3-0.233 0.567-0.4 0.8-0.5 0.367-0.2 0.867-0.267 1.5-0.2 0.133 0 0.317 0.017 0.55 0.05-0.2 0.133-0.65 0.233-1.35 0.3-0.333 0.067-0.7 0.25-1.1 0.55-0.333 0.2-0.617 0.367-0.85 0.5l-0.6-0.1zm-6.6 4.2c0.133-0.167 0.233-0.283 0.3-0.35l1.5-0.65c0.567-0.267 1.017-0.517 1.35-0.75 0.567-0.433 0.983-0.733 1.25-0.9s0.517-0.316 0.75-0.45l0.65 0.1c-0.467 0.367-0.85 0.667-1.15 0.9-0.2 0.167-0.517 0.433-0.95 0.8-0.4 0.3-0.767 0.467-1.1 0.5-1.1 0.133-1.617 0.417-1.55 0.85v0.05l-0.15-0.05c-0.5 0-0.8-0.017-0.9-0.05z" fill="#E1C88F"/>
	<path d="m3.8 11.1l-1.25-1.25-1.65-1.6-0.75-0.75-0.05-0.05-0.05-0.45-0.05-0.5v-0.1c0.033 0 0.067 0.017 0.1 0.05 0.2 0.066 0.517 0.133 0.95 0.2 0.2 0.067 0.567 0.333 1.1 0.8 0.167 0.133 0.35 0.367 0.55 0.7l0.6 0.65c0.3 0.367 0.7 0.95 1.2 1.75 0.933 1.267 1.7 2.184 2.3 2.75l1.35 1.15c0.434 0.533 0.65 0.833 0.65 0.899-0.133-0.033-0.383-0.183-0.75-0.449l-0.7-0.45c-0.533-0.233-0.883-0.45-1.05-0.65-0.433-0.6-0.783-1.033-1.05-1.3l-1.45-1.4z" fill="#C5AA72"/>
	<path d="m12.55 17.75c0.7-0.233 1.167-0.417 1.4-0.55l0.3-0.25 2.4 0.35-1.5 0.25c-0.566 0.101-1.033 0.233-1.4 0.4-0.3 0.166-0.683 0.25-1.15 0.25-0.033-0.134-0.05-0.283-0.05-0.45zm-8.75 1.15l0.95-0.351c0.633-0.3 1.517-0.833 2.65-1.6 0.2-0.134 0.533-0.267 1-0.4l0.6 0.251c-0.367 0.267-0.983 0.55-1.85 0.851-0.467 0.3-0.867 0.5-1.2 0.6-0.8 0.4-1.317 0.634-1.55 0.7-0.9 0.3-1.45 0.45-1.65 0.45h-0.1l0.1-0.051 0.8-0.399 0.25-0.051z" fill="#CFB680"/>
</g>
</svg>
