<?xml version="1.0" encoding="UTF-8" standalone="no"?>
<!DOCTYPE svg PUBLIC "-//W3C//DTD SVG 1.0//EN" "http://www.w3.org/TR/2001/REC-SVG-20010904/DTD/svg10.dtd">
<svg viewBox="0 0 437.5 437.5" xmlns="http://www.w3.org/2000/svg" xmlns:xlink="http://www.w3.org/1999/xlink">
<defs>
<linearGradient>
<stop offset="0" stop-opacity=".5608"/>
<stop offset="1" stop-opacity=".1451"/>
</linearGradient>
<linearGradient x1="-3.836925e-9" x2="1">
<stop offset="0" stop-color="#ff0"/>
<stop offset="1" stop-color="#85b200"/>
</linearGradient>
<linearGradient x1=".37855" x2=".70978" xlink:href="#linearGradient51" y1="-3.12471297e-2" y2=".76563"/>
<radialGradient xlink:href="#linearGradient51"/>
<radialGradient cx=".5" cy=".5" r=".5" xlink:href="#linearGradient51"/>
</defs>
<path d="m425.0484,311.0733c-38.1793-20.8233-121.1275-84.3403-160.7206-101.8186-16.7309-6.1878-34.5563-20.3075-52.2623-21.5042l.3972-7.2846c18.138,2.9347 34.5549,10.1207 51.6531,17.2149 39.1738,18.3061 129.1828,62.0635 168.026,81.1691 9.5091,3.9031 4.3275,37.7133-7.0934,32.2234z" fill="#005b00"/>
<path d="m207.4519,181.0702c11.7158-17.2576 24.5789-40.1793 36.6055-59.0605 29.3714-38.96729 100.3169-86.64685 134.8839-121.09291 13.368.64537 30.0555-1.62849 35.5274.59815-36.1702,32.89494-129.4171,84.43615-158.2779,123.88757-12.1099,20.709-30.411,40.9316-41.5664,62.0459l-7.1725-6.3782z" fill="#006700"/>
<path d="m211.4689,185.5488c-12.7843-7.2548-28.9396-21.1149-41.6133-32.1398-30.0285-30.4743-138.31743-105.8105-167.07029-137.48992-6.54207-7.04644 14.80728-19.24897 20.99809-11.91777 27.69249,32.52621 119.5743,115.52569 150.2447,145.26859 13.1944,10.5731 25.6856,22.71 42.0546,28.0729l-4.6138,8.206z" fill="#004700"/>
<path d="m213.2692,184.1926c-15.9476,6.0208-33.2355,8.3955-49.8448,11.8936-39.2262,8.4002-118.21688,35.81-157.48487,44.013-7.4162,2.1183-6.91318-6.1998-1.39275-6.9722 39.59903-6.3556 118.44762-33.3231 157.55232-42.217 15.4266-4.1308 32.6022-6.6435 46.5563-14.9234l4.6138,8.206z" fill="#005800"/>
<path d="m218.0441,182.4214c.2451,8.4749-1.1532,16.6846-2.4497,25.0451-8.727,35.5757-52.1727,162.733-66.2541,196.6441-7.0139,54.2695-32.1073,22.1211-18.7101-5.7076 13.6047-33.7931 71.135-156.0782 78.2067-191.7206 .5923-6.6373 1.4785-17.1714.5813-22.1568l8.6259-2.1042z" fill="#008100"/>
<path d="m208.8249,193.7122c5.8111-5.6269 13.2788-3.8862 21.016-3.1828-3.7022-6.0111-7.141-22.6922-2.3162-30.572-8.8525,4.5544-27.801,8.2846-36.8742,6.5292 2.3661,8.4405.5827,14.6002-.2841,22.4727 4.6043,2.1528 14.5369,22.7567 13.8335,26.977 12.2281-8.7112 61.3364-18.7998 72.0651-11.5953-9.6633-21.394-31.8385-58.2438-27.2696-74.2167-11.844,10.3873-86.3312,11.5454-95.4825,9.2146 7.2619,8.3625-.8447,47.9577-8.0138,56.1994 14.4661,7.9932 49.7569,50.3445 46.7727,74.1252 21.1379-11.532 106.1319-50.815 121.2515-43.8592-11.2406-34.0767-36.4574-101.6958-26.2042-135.41043-36.4987,19.00593-158.4598,3.91426-184.6846-.66193 7.5957,28.24956 1.4008,104.31426-9.62665,120.33596 18.31705,18.0111 73.67175,94.0903 73.67175,114.3469 22.8787-9.5852 180.0876-74.319 196.742-65.6725-15.1768-33.6294-26.8516-199.23241-9.9058-223.61779-25.8275,15.40356-286.70359,1.66882-321.51893-4.31419 16.41294,54.19784 13.55802,171.37058-9.40597,201.40378 28.76167,14.1174 124.544,134.7094 118.5404,158.2768 35.2775-28.1583 259.684-105.1556 290.7118-84.4017" fill="none" stroke="#004b00" stroke-width="12.5"/>
<path d="m318.1701,263.5953c-8.5812,2.1028-89.7132,20.3271-109.9962,26.6354-9.3614-19.6261-10.9216-38.5512-14.042-48.3643 27.304-7.7102 77.2314-18.9252 106.8757-18.2242 7.021,11.9158 14.8222,26.6354 17.1625,39.9531z" fill="#ffdc9c" fill-rule="evenodd" stroke="#eb6000" stroke-linejoin="bevel" stroke-width="6.57067"/>
<path d="m251.0803,414.9968c29.6444-2.8037 104.5354-28.7383 126.3786-39.2523 3.9006-19.6261 10.1415-71.4951 5.4608-85.5138-18.7227,6.3084-109.2161,30.8411-127.9389,38.5514-1.5602,9.1121-2.3403,65.8876-3.9005,86.2147z" fill="#fff" fill-rule="evenodd" stroke="#0000c5" stroke-width="6.57067"/>
<path d="m250.3001,416.3986c-13.2619-7.7102-35.8853-29.4392-43.6864-40.6541 0-16.1214-1.5602-67.9905 0-85.5138 6.2409,6.3084 35.1052,26.6355 48.3671,38.5514 .7801,6.3084-3.1204,67.9904-4.6807,87.6165z" fill="#00da00" fill-rule="evenodd" stroke="#007500" stroke-linejoin="bevel" stroke-width="6.57067"/>
<path d="m382.9197,290.9316c-14.8222-3.5046-56.1683-21.0278-63.1893-27.3363s-2.3403-28.0373.7801-35.7475c16.3825,2.8037 69.4302,16.1214 86.5928,21.7289 5.4608,20.3271-23.4035,42.0559-24.1836,41.3549z" fill="#ffe8b0" fill-rule="evenodd" stroke="#fc9700" stroke-linejoin="bevel" stroke-width="6.57067"/>
<path d="m254.2007,328.0811c3.9006-27.3364.7802-48.3643 2.3404-63.0839-5.4608-4.2056-51.4876-29.4392-47.5871-16.1215s-2.3403,40.6541-2.3403,40.6541l47.587,38.5513z" fill="#fff" fill-rule="evenodd" stroke="#fc8b00" stroke-linejoin="bevel" stroke-width="6.57067"/>
<path d="m254.9809,328.7821c-7.0211-19.6261-24.1836-33.6449-27.3041-49.0654 11.7017-11.2149 149.7821-40.654 170.0651-37.1493 3.1205,14.7195-6.2409,36.4484-14.0421,47.6633-13.2619,4.2056-109.2161,30.8411-128.7189,38.5514z" fill="#fff" fill-rule="evenodd" stroke="#f27f00" stroke-linejoin="bevel" stroke-width="6.57067"/>
<path d="m251.8604,414.9968c.7801-26.6355 2.2579-82.1849 6.1585-81.484s73.4132,60.456 67.1723,62.5588-69.4303,21.028-73.3308,18.9252z" fill="#00b2ff" fill-rule="evenodd" stroke="#000086" stroke-linejoin="bevel" stroke-width="6.57067"/>
<path d="m383.3039,297.851c2.3404,24.0432-2.3404,77.9995-6.2409,77.3497s-71.8255-55.8404-65.5846-57.7899c12.4818-2.5993 67.9249-21.5093 71.8255-19.5598z" fill="#a70000" fill-rule="evenodd" stroke="#6b0000" stroke-linejoin="bevel" stroke-width="6.32654"/>
</svg>
